<?xml version="1.0"?>
<svg xmlns="http://www.w3.org/2000/svg" viewBox="0 0 16 16">
    <path style="line-height:normal;text-indent:0;text-align:start;
    text-decoration-line:none;text-decoration-style:solid;
    text-decoration-color:#000;
    text-transform:none;block-progression:tb;isolation:auto;mix-blend-mode:normal"
          fill="#23364e"
          d="M 3 1 L 3 3 L 3 5.5 C 3 6.7031118 3.8635326 7.7150852 5 7.9492188 L 5 11.5 C 5 12.874985 6.1250151 14 7.5 14 C 8.8749849 14 10 12.874985 10 11.5 L 10 8.5 L 9.9882812 8.5 C 9.99297 7.7997688 10.467894 7.228784 11.113281 7.0644531 C 11.338273 7.6109136 11.876657 8 12.5 8 C 13.322505 8 14 7.3225048 14 6.5 C 14 5.6774952 13.322505 5 12.5 5 C 11.833768 5 11.269132 5.4467053 11.076172 6.0527344 C 9.9020411 6.2508092 8.9949559 7.2688054 8.9882812 8.4980469 L 9.4882812 8.5 L 9 8.5 L 9 11.5 C 9 12.335015 8.3350151 13 7.5 13 C 6.6649849 13 6 12.335015 6 11.5 L 6 7.9492188 C 6 7.9492188 6.0019531 7.9492188 6.0019531 7.9492188 C 7.1384205 7.7150852 8 6.7031118 8 5.5 L 8 3 L 8 1 L 6 1 L 6 2 L 7 2 L 7 3 L 7 5.5 C 7 6.3350151 6.3350151 7 5.5 7 C 4.6649849 7 4 6.3350151 4 5.5 L 4 3 L 4 2 L 5 2 L 5 1 L 3 1 z M 12.5 6 C 12.782065 6 13 6.2179353 13 6.5 C 13 6.7820647 12.782065 7 12.5 7 C 12.217935 7 12 6.7820647 12 6.5 C 12 6.2179353 12.217935 6 12.5 6 z" font-weight="400"
          font-family="sans-serif" white-space="normal" overflow="visible"/>
</svg>
