<svg xmlns="http://www.w3.org/2000/svg" xmlns:xlink="http://www.w3.org/1999/xlink" width="102" height="102" version="1.2" transform="rotate(110.905 0 0)" style=""><rect id="backgroundrect" width="100%" height="100%" x="0" y="0" fill="none" stroke="none"/>
  <g class="currentLayer" style=""><title>Layer 1</title><g id="surface1" class="">
    <path style=" stroke:none;fill-rule:nonzero;fill:rgb(100%,69.804382%,34.901428%);fill-opacity:1;" d="M54.111982595581054,0.749271642822265 C56.455732595581054,-0.3835413571777338 59.68620159558105,-0.32494735717773443 60.670575595581056,1.5695836428222663 C61.420575595581056,3.026615642822266 61.119794595581055,5.073489642822267 58.565107595581054,6.249271642822265 C56.076825595581056,7.710208642822266 54.15495159558105,8.843021642822265 50.889325595581056,11.686771642822265 C49.674482595581054,12.745365642822264 47.994794595581055,14.991458642822266 46.865888595581055,16.745365642822264 C43.393232595581054,22.143802642822266 43.877607595581054,30.518802642822266 43.111982595581054,32.264896642822265 C42.830732595581054,32.913333642822266 42.139325595581056,32.889896642822265 41.709638595581055,32.22973964282227 C38.635419595581055,27.518802642822266 38.506513595581055,15.081302642822266 44.854169595581055,7.874271642822265 C47.744794595581055,4.596927642822266 50.12370159558105,2.686771642822265 54.111982595581054,0.749271642822265 " id="svg_1"/>
    <path style=" stroke:none;fill-rule:nonzero;fill:rgb(100%,69.804382%,34.901428%);fill-opacity:1;" d="M56.557294595581055,15.218021642822265 C58.346357595581054,14.350833642822266 60.783857595581054,14.413333642822266 61.569013595581055,15.846927642822266 C62.213544595581055,17.018802642822266 61.744794595581055,18.745365642822264 59.791669595581055,19.647708642822266 C57.858075595581056,20.780521642822265 56.584638595581055,21.409427642822266 54.084638595581055,23.585208642822266 C53.158857595581054,24.397708642822266 51.701825595581056,26.561771642822265 50.834638595581055,27.905521642822265 C48.178388595581055,32.038333642822266 48.444013595581055,38.143802642822266 48.151044595581055,39.69848964282227 C48.033857595581054,40.331302642822266 47.225263595581055,40.745365642822264 46.713544595581055,39.878177642822266 C44.533857595581054,36.163333642822266 44.608075595581056,26.186771642822265 49.471357595581054,20.667239642822267 C51.678388595581055,18.159427642822266 53.49870159558105,16.698489642822267 56.557294595581055,15.218021642822265 " id="svg_2"/>
    <path style=" stroke:none;fill-rule:nonzero;fill:rgb(100%,69.804382%,34.901428%);fill-opacity:1;" d="M57.662763595581055,27.100833642822266 C59.018232595581054,26.378177642822266 60.877607595581054,26.436771642822265 61.600263595581055,27.565677642822266 C62.119794595581055,28.362552642822266 61.994794595581055,29.741458642822266 60.514325595581056,30.491458642822266 C59.065107595581054,31.366458642822266 57.971357595581054,32.139896642822265 56.119794595581055,33.932865642822264 C55.432294595581055,34.600833642822266 54.510419595581055,36.01098964282227 53.897138595581055,37.108646642822265 C52.014325595581056,40.499271642822265 52.475263595581055,46.171146642822265 52.221357595581054,47.300052642822266 C52.096357595581054,47.85473964282227 51.490888595581055,47.788333642822266 51.213544595581055,47.378177642822266 C49.209638595581055,44.471927642822266 48.846357595581054,36.139896642822265 52.385419595581055,31.604739642822267 C53.994794595581055,29.546146642822265 55.346357595581054,28.335208642822266 57.662763595581055,27.100833642822266 " id="svg_3"/>
    <path style=" stroke:none;fill-rule:nonzero;fill:rgb(100%,69.804382%,34.901428%);fill-opacity:1;" d="M49.408857595581054,101.31958364282227 C47.065107595581054,102.45239664282226 43.834638595581055,102.39380264282227 42.854169595581055,100.49927164282226 C42.100263595581055,99.04223964282227 42.401044595581055,96.99927164282226 44.955732595581054,95.82348964282227 C47.447919595581055,94.35864664282226 49.365888595581055,93.22583364282227 52.635419595581055,90.38208364282227 C53.846357595581054,89.32739664282226 55.526044595581055,87.07739664282226 56.65495159558105,85.32348964282227 C60.127607595581054,79.92505264282227 59.647138595581055,71.55005264282227 60.408857595581054,69.80786564282226 C60.694013595581055,69.15552164282226 61.385419595581055,69.18286564282226 61.81120159558105,69.83911564282226 C64.88932559558106,74.55005264282227 65.01432559558106,86.98755264282227 58.666669595581055,94.19848964282227 C55.77995159558105,97.47583364282227 53.397138595581055,99.38208364282227 49.408857595581054,101.31958364282227 " id="svg_4"/>
    <path style=" stroke:none;fill-rule:nonzero;fill:rgb(100%,69.804382%,34.901428%);fill-opacity:1;" d="M46.96745159558105,86.85083364282227 C45.174482595581054,87.71802164282226 42.736982595581054,87.65552164282226 41.951825595581056,86.22192764282227 C41.31120159558105,85.05005264282227 41.776044595581055,83.32348964282227 43.729169595581055,82.42505264282227 C45.662763595581055,81.28833364282227 46.93620159558105,80.65942764282227 49.43620159558105,78.48364664282226 C50.361982595581054,77.67114664282226 51.822919595581055,75.50708364282227 52.68620159558105,74.16723964282227 C55.346357595581054,70.03052164282226 55.076825595581056,63.925052642822266 55.369794595581055,62.370365642822264 C55.490888595581055,61.737552642822266 56.299482595581054,61.32348964282227 56.81120159558105,62.190677642822266 C58.986982595581054,65.90552164282226 58.912763595581055,75.88598964282227 54.053388595581055,81.40161564282226 C51.846357595581054,83.90942764282227 50.022138595581055,85.37036564282226 46.96745159558105,86.85083364282227 " id="svg_5"/>
    <path style=" stroke:none;fill-rule:nonzero;fill:rgb(100%,69.804382%,34.901428%);fill-opacity:1;" d="M45.861982595581054,74.96802164282226 C44.506513595581055,75.69067764282227 42.647138595581055,75.63208364282227 41.920575595581056,74.50317764282227 C41.40495159558105,73.70630264282227 41.526044595581055,72.32739664282226 43.010419595581055,71.57739664282226 C44.455732595581054,70.70630264282227 45.553388595581055,69.92895864282227 47.40495159558105,68.13598964282227 C48.09245159558105,67.46802164282226 49.010419595581055,66.05786564282226 49.62370159558105,64.96020864282227 C51.506513595581055,61.569583642822266 51.049482595581054,55.897708642822266 51.299482595581054,54.768802642822266 C51.424482595581054,54.218021642822265 52.02995159558105,54.280521642822265 52.31120159558105,54.690677642822266 C54.31120159558105,57.600833642822266 54.674482595581054,65.93286564282226 51.135419595581055,70.46411564282226 C49.526044595581055,72.52661564282226 48.178388595581055,73.73364664282226 45.861982595581054,74.96802164282226 " id="svg_6"/>
    <path style=" stroke:none;fill-rule:nonzero;fill:rgb(100%,69.804382%,34.901428%);fill-opacity:1;" d="M23.139325595581056,28.975833642822266 C23.283857595581054,26.991458642822266 24.557294595581055,24.913333642822266 26.190107595581054,24.944583642822266 C27.526044595581055,24.975833642822266 28.791669595581055,26.245365642822264 28.592451595581053,28.385989642822267 C28.608075595581056,30.628177642822266 28.518232595581054,32.046146642822265 29.154951595581053,35.296146642822265 C29.389325595581056,36.503177642822266 30.537763595581055,38.850833642822266 31.268232595581054,40.272708642822266 C33.518232595581054,44.639896642822265 38.940107595581054,47.460208642822266 40.139325595581056,48.491458642822266 C40.627607595581054,48.909427642822266 40.580732595581054,49.819583642822266 39.576825595581056,49.827396642822265 C35.268232595581054,49.858646642822265 26.662763595581055,44.803958642822266 24.319013595581055,37.835208642822266 C23.248701595581053,34.671146642822265 22.893232595581054,32.362552642822266 23.139325595581056,28.975833642822266 " id="svg_7"/>
    <path style=" stroke:none;fill-rule:nonzero;fill:rgb(100%,69.804382%,34.901428%);fill-opacity:1;" d="M33.983075595581056,33.960208642822266 C34.037763595581055,32.425052642822266 35.018232595581054,30.843021642822265 36.354169595581055,30.776615642822264 C37.307294595581055,30.729739642822267 38.43620159558105,31.522708642822266 38.346357595581054,33.186771642822265 C38.377607595581054,34.874271642822265 38.502607595581054,36.210208642822266 39.131513595581055,38.710208642822266 C39.365888595581055,39.639896642822265 40.127607595581054,41.143802642822266 40.772138595581055,42.221927642822266 C42.764325595581056,45.546146642822265 47.90495159558105,47.983646642822265 48.756513595581055,48.768802642822266 C49.174482595581054,49.151615642822264 48.815107595581054,49.643802642822266 48.319013595581055,49.682865642822264 C44.799482595581054,49.964115642822264 37.40495159558105,46.108646642822265 35.244794595581055,40.776615642822264 C34.268232595581054,38.35473964282227 33.897138595581055,36.581302642822266 33.983075595581056,33.960208642822266 " id="svg_8"/>
    <path style=" stroke:none;fill-rule:nonzero;fill:rgb(100%,69.804382%,34.901428%);fill-opacity:1;" d="M94.13541959558103,78.21411564282226 C93.94401359558105,80.81177164282226 92.27604459558103,83.57739664282226 90.14323259558108,83.47973964282227 C88.50651359558105,83.40161564282226 86.88541959558103,82.12036564282226 87.14713859558105,79.32348964282227 C87.12370159558105,76.43286564282226 87.10416959558103,74.20239664282226 86.27604459558103,69.95239664282226 C85.96745159558105,68.37427164282226 84.85807559558106,65.79223964282227 83.90495159558105,63.940677642822266 C80.96354459558103,58.233646642822265 73.47135759558105,54.464115642822264 72.34245159558105,52.932865642822264 C71.92057559558106,52.358646642822265 72.28776359558105,51.776615642822264 73.06901359558105,51.733646642822265 C78.69010759558105,51.425052642822266 89.52604459558103,57.530521642822265 92.59245159558105,66.63598964282227 C93.98698259558108,70.77661564282226 94.45182559558106,73.79223964282227 94.13541959558103,78.21411564282226 " id="svg_9"/>
    <path style=" stroke:none;fill-rule:nonzero;fill:rgb(100%,69.804382%,34.901428%);fill-opacity:1;" d="M80.38151359558105,73.09692764282227 C80.23698259558108,75.08130264282227 78.96354459558106,77.15942764282227 77.33073259558105,77.12427164282226 C75.99479459558106,77.09302164282226 74.73307559558106,75.82348964282227 74.92838859558105,73.68677164282226 C74.91276359558105,71.44458364282227 75.00260759558105,70.02661564282226 74.36979459558106,66.77270864282227 C74.13151359558105,65.56567764282227 72.98698259558105,63.218021642822265 72.25651359558105,61.800052642822266 C70.00260759558105,57.432865642822264 64.58463859558105,54.608646642822265 63.385419595581055,53.577396642822265 C62.893232595581054,53.159427642822266 62.940107595581054,52.249271642822265 63.947919595581055,52.241458642822266 C68.25260759558105,52.210208642822266 76.85807559558106,57.264896642822265 79.20573259558108,64.23364664282226 C80.27213859558105,67.40161564282226 80.62760759558108,69.71020864282227 80.38151359558105,73.09692764282227 " id="svg_10"/>
    <path style=" stroke:none;fill-rule:nonzero;fill:rgb(100%,69.804382%,34.901428%);fill-opacity:1;" d="M69.53776359558105,68.11255264282227 C69.48307559558106,69.64770864282227 68.50651359558105,71.22583364282227 67.16666959558106,71.29223964282227 C66.21745159558105,71.33911564282226 65.08463859558105,70.54614664282226 65.17838859558105,68.88598964282227 C65.14323259558105,67.19848964282227 65.01823259558105,65.85864664282226 64.39323259558105,63.362552642822266 C64.15885759558105,62.428958642822266 63.397138595581055,60.925052642822266 62.752607595581054,59.846927642822266 C60.760419595581055,56.522708642822266 55.615888595581055,54.085208642822266 54.764325595581056,53.300052642822266 C54.350263595581055,52.91723964282227 54.709638595581055,52.425052642822266 55.201825595581056,52.38598964282227 C58.721357595581054,52.108646642822265 66.11979459558106,55.960208642822266 68.27604459558106,61.29223964282227 C69.25651359558105,63.714115642822264 69.62760759558105,65.48755264282227 69.53776359558105,68.11255264282227 " id="svg_11"/>
    <path style=" stroke:none;fill-rule:nonzero;fill:rgb(100%,69.804382%,34.901428%);fill-opacity:1;" d="M7.033857595581054,74.13989664282226 C4.885419595581055,72.67895864282227 3.3190135955810542,69.85083364282227 4.471357595581054,68.05005264282227 C5.354169595581055,66.67114664282226 7.276044595581055,65.90942764282227 9.569013595581055,67.53442764282227 C12.084638595581055,68.96020864282227 14.022138595581055,70.05786564282226 18.119794595581055,71.46411564282226 C19.643232595581054,71.98755264282227 22.428388595581055,72.31958364282227 24.514325595581056,72.41723964282227 C30.924482595581054,72.72583364282227 37.93620159558105,68.12036564282226 39.826825595581056,67.90942764282227 C40.533857595581054,67.83130264282227 40.854169595581055,68.44067764282227 40.502607595581054,69.13989664282226 C37.959638595581055,74.15942764282227 27.252607595581054,80.49145864282227 17.834638595581055,78.59302164282226 C13.553388595581055,77.73364664282226 10.705732595581054,76.62817764282227 7.033857595581054,74.13989664282226 " id="svg_12"/>
    <path style=" stroke:none;fill-rule:nonzero;fill:rgb(100%,69.804382%,34.901428%);fill-opacity:1;" d="M18.346357595581054,64.79223964282227 C16.697919595581055,63.675052642822266 15.533857595581054,61.530521642822265 16.381513595581055,60.13598964282227 C17.072919595581055,58.991458642822266 18.807294595581055,58.530521642822265 20.561201595581053,59.772708642822266 C22.510419595581055,60.882083642822266 23.694013595581055,61.66723964282227 26.826825595581056,62.745365642822264 C27.990888595581055,63.143802642822266 30.596357595581054,63.32348964282227 32.190107595581054,63.397708642822266 C37.100263595581055,63.63598964282227 42.252607595581054,60.35473964282227 43.744794595581055,59.827396642822265 C44.354169595581055,59.612552642822266 45.115888595581055,60.108646642822265 44.619794595581055,60.983646642822265 C42.494794595581055,64.72973964282227 33.815107595581054,69.65161564282226 26.608075595581056,68.20239664282226 C23.330732595581054,67.54614664282226 21.154951595581053,66.69458364282227 18.346357595581054,64.79223964282227 " id="svg_13"/>
    <path style=" stroke:none;fill-rule:nonzero;fill:rgb(100%,69.804382%,34.901428%);fill-opacity:1;" d="M28.084638595581055,57.889896642822265 C26.779951595581053,57.077396642822265 25.901044595581055,55.440677642822266 26.514325595581056,54.245365642822264 C26.947919595581055,53.401615642822264 28.201825595581056,52.819583642822266 29.592451595581053,53.72973964282227 C31.072919595581055,54.54223964282227 32.291669595581055,55.10473964282227 34.768232595581054,55.811771642822265 C35.690107595581054,56.07348964282227 37.377607595581054,56.163333642822266 38.631513595581055,56.143802642822266 C42.506513595581055,56.081302642822266 47.190107595581054,52.846927642822266 48.295575595581056,52.503177642822266 C48.838544595581055,52.335208642822266 49.084638595581055,52.889896642822265 48.869794595581055,53.339115642822264 C47.350263595581055,56.526615642822264 40.315107595581054,61.003177642822266 34.619794595581055,60.206302642822266 C32.02995159558105,59.843021642822265 30.311201595581053,59.280521642822265 28.084638595581055,57.889896642822265 " id="svg_14"/>
    <path style=" stroke:none;fill-rule:nonzero;fill:rgb(100%,69.804382%,34.901428%);fill-opacity:1;" d="M96.48307559558106,27.928958642822266 C98.63541959558103,29.389896642822265 100.20182559558106,32.221927642822266 99.04948259558108,34.014896642822265 C98.16666959558103,35.393802642822266 96.24479459558103,36.159427642822266 93.95182559558106,34.534427642822266 C91.43620159558105,33.108646642822265 89.49870159558105,32.01098964282227 85.39713859558105,30.604739642822267 C83.87760759558108,30.081302642822266 81.08854459558103,29.749271642822265 79.00651359558105,29.651615642822264 C72.59245159558105,29.343021642822265 65.58463859558105,33.94848964282227 63.694013595581055,34.159427642822266 C62.986982595581054,34.237552642822266 62.666669595581055,33.628177642822266 63.018232595581054,32.928958642822266 C65.56120159558105,27.909427642822266 76.26823259558105,21.577396642822265 85.68620159558105,23.471927642822266 C89.96745159558105,24.335208642822266 92.81120159558105,25.440677642822266 96.48307559558106,27.928958642822266 " id="svg_15"/>
    <path style=" stroke:none;fill-rule:nonzero;fill:rgb(100%,69.804382%,34.901428%);fill-opacity:1;" d="M85.17448259558108,37.276615642822264 C86.82291959558103,38.393802642822266 87.58463859558105,40.370365642822264 86.74088859558105,41.768802642822266 C86.04557559558106,42.909427642822266 84.71354459558103,43.534427642822266 82.95963859558105,42.296146642822265 C81.00651359558105,41.190677642822266 79.82682559558106,40.401615642822264 76.69401359558105,39.32348964282227 C75.52995159558105,38.928958642822266 72.92057559558106,38.745365642822264 71.33073259558105,38.66723964282227 C66.42057559558106,38.432865642822264 61.268232595581054,41.718021642822265 59.772138595581055,42.241458642822266 C59.162763595581055,42.452396642822265 58.401044595581055,41.960208642822266 58.897138595581055,41.085208642822266 C61.026044595581055,37.343021642822265 69.70573259558105,32.413333642822266 76.91276359558105,33.866458642822266 C80.19010759558108,34.526615642822264 82.36588859558105,35.370365642822264 85.17448259558108,37.276615642822264 " id="svg_16"/>
    <path style=" stroke:none;fill-rule:nonzero;fill:rgb(100%,69.804382%,34.901428%);fill-opacity:1;" d="M75.43620159558105,44.178958642822266 C76.74088859558105,44.991458642822266 77.61979459558106,46.628177642822266 77.00651359558105,47.82348964282227 C76.57291959558106,48.66723964282227 75.31901359558105,49.249271642822265 73.92448259558105,48.339115642822264 C72.44791959558106,47.526615642822264 71.22916959558106,46.964115642822264 68.74870159558105,46.257083642822266 C67.82682559558106,45.995365642822264 66.14323259558105,45.905521642822265 64.88932559558106,45.921146642822265 C61.010419595581055,45.987552642822266 56.330732595581054,49.221927642822266 55.221357595581054,49.565677642822266 C54.682294595581055,49.733646642822265 54.440107595581054,49.178958642822266 54.651044595581055,48.72973964282227 C56.170575595581056,45.54223964282227 63.205732595581054,41.061771642822265 68.90104459558106,41.862552642822266 C71.49088859558105,42.225833642822266 73.20963859558105,42.788333642822266 75.43620159558105,44.178958642822266 " id="svg_17"/>
    <path style=" stroke:none;fill-rule:nonzero;fill:rgb(100%,69.804382%,34.901428%);fill-opacity:1;" d="M31.182294595581055,49.13598964282227 C30.623701595581053,48.382083642822266 28.522138595581055,47.081302642822266 26.182294595581055,45.276615642822264 C23.772138595581055,43.41723964282227 21.111982595581054,41.022708642822266 19.619794595581055,38.128177642822266 C18.662763595581055,36.276615642822264 17.557294595581055,33.69848964282227 17.248701595581053,32.116458642822266 C17.084638595581055,31.280521642822265 16.959638595581055,30.538333642822266 16.854169595581055,29.835208642822266 C16.416669595581055,26.979739642822267 16.393232595581054,25.069583642822266 16.377607595581054,22.745365642822264 C16.635419595581055,19.948489642822267 15.014325595581056,18.667239642822267 13.377607595581054,18.589115642822264 C11.244794595581055,18.491458642822266 9.576825595581056,21.260989642822267 9.389325595581056,23.854739642822267 C9.248701595581053,25.776615642822264 9.268232595581054,27.428958642822266 9.440107595581054,29.026615642822264 C9.658857595581054,31.108646642822265 10.139325595581056,33.093021642822265 10.928388595581055,35.432865642822264 C11.139325595581056,36.053958642822266 11.393232595581054,36.659427642822266 11.666669595581055,37.253177642822266 C14.244794595581055,37.952396642822265 16.182294595581055,40.132083642822266 16.182294595581055,43.147708642822266 C16.182294595581055,43.253177642822266 16.170575595581056,43.350833642822266 16.166669595581055,43.452396642822265 C18.834638595581055,46.077396642822265 22.010419595581055,48.061771642822265 24.944013595581055,49.210208642822266 C26.990888595581055,50.01098964282227 28.916669595581055,50.421146642822265 30.451825595581056,50.335208642822266 C31.233075595581056,50.296146642822265 31.600263595581055,49.710208642822266 31.182294595581055,49.13598964282227 " id="svg_18"/>
  </g></g></svg>
