<?xml version="1.0" encoding="UTF-8"?>
<svg xmlns="http://www.w3.org/2000/svg" xmlns:xlink="http://www.w3.org/1999/xlink" width="324pt" height="126pt" viewBox="0 0 324 126" version="1.2">
  <g id="surface1">
 <path style=" stroke:none;fill-rule:nonzero;fill:rgb(13.725281%,21.176147%,30.587769%);fill-opacity:1;" d="M 57.292969 48.976562 L 45.675781 48.976562 L 45.675781 61.976562 L 57.292969 61.976562 C 60.722656 61.976562 63.625 59.074219 63.625 55.378906 C 63.625 51.683594 60.722656 48.976562 57.292969 48.976562 M 58.875 69.960938 L 45.675781 69.960938 L 45.675781 84.945312 L 35.777344 84.945312 L 35.777344 45.941406 C 35.777344 43.234375 38.019531 40.992188 40.726562 40.992188 L 58.875 40.992188 C 67.652344 40.992188 73.789062 47.523438 73.789062 55.378906 C 73.789062 63.230469 67.652344 69.960938 58.875 69.960938 "/>
    <path style=" stroke:none;fill-rule:nonzero;fill:rgb(13.725281%,21.176147%,30.587769%);fill-opacity:1;" d="M 106.328125 84.945312 L 106.328125 67.191406 L 86.664062 67.191406 L 86.664062 84.945312 L 76.761719 84.945312 L 76.761719 40.992188 L 86.664062 40.992188 L 86.664062 58.414062 L 106.328125 58.414062 L 106.328125 40.992188 L 116.160156 40.992188 L 116.160156 84.945312 Z "/>
    <path style=" stroke:none;fill-rule:nonzero;fill:rgb(13.725281%,21.176147%,30.587769%);fill-opacity:1;" d="M 140.121094 54.519531 L 134.972656 68.445312 L 145.269531 68.445312 Z M 151.539062 84.945312 L 148.105469 75.96875 L 132.070312 75.96875 L 128.636719 84.945312 L 118.804688 84.945312 L 135.964844 43.300781 C 136.691406 41.519531 138.40625 40.53125 140.121094 40.53125 C 141.835938 40.53125 143.488281 41.519531 144.214844 43.300781 L 161.371094 84.945312 Z "/>
    <path style=" stroke:none;fill-rule:nonzero;fill:rgb(13.725281%,21.176147%,30.587769%);fill-opacity:1;" d="M 186.714844 48.976562 L 173.914062 48.976562 L 173.914062 61.449219 L 186.714844 61.449219 C 190.148438 61.449219 193.050781 58.808594 193.050781 55.113281 C 193.050781 51.417969 190.148438 48.976562 186.714844 48.976562 M 193.710938 84.945312 L 184.738281 69.171875 L 173.914062 69.171875 L 173.914062 84.945312 L 164.015625 84.945312 L 164.015625 45.941406 C 164.015625 43.234375 166.257812 40.992188 168.964844 40.992188 L 188.761719 40.992188 C 197.144531 40.992188 203.214844 47.261719 203.214844 55.113281 C 203.214844 60.722656 199.914062 65.472656 195.097656 67.71875 L 205.0625 84.945312 Z "/>
    <path style=" stroke:none;fill-rule:nonzero;fill:rgb(13.725281%,21.176147%,30.587769%);fill-opacity:1;" d="M 228.65625 49.109375 C 220.671875 49.109375 215.851562 55.046875 215.851562 63.035156 C 215.851562 71.019531 220.671875 76.890625 228.65625 76.890625 C 236.640625 76.890625 241.457031 71.019531 241.457031 63.035156 C 241.457031 55.046875 236.640625 49.109375 228.65625 49.109375 M 228.65625 85.667969 C 215.191406 85.667969 205.953125 75.574219 205.953125 63.035156 C 205.953125 50.496094 215.191406 40.332031 228.65625 40.332031 C 242.117188 40.332031 251.292969 50.496094 251.292969 63.035156 C 251.292969 75.574219 242.117188 85.667969 228.65625 85.667969 "/>
    <path style=" stroke:none;fill-rule:nonzero;fill:rgb(13.725281%,21.176147%,30.587769%);fill-opacity:1;" d="M 270.605469 85.667969 C 264.796875 85.667969 258.527344 84.480469 252.71875 82.5 L 254.5 74.847656 C 259.582031 76.230469 265.652344 77.289062 270.734375 77.289062 C 276.34375 77.289062 279.644531 75.96875 279.644531 73.261719 C 279.644531 71.085938 275.15625 69.566406 266.84375 65.738281 C 259.1875 62.242188 254.238281 59.007812 254.238281 52.605469 C 254.238281 43.761719 259.914062 40.332031 272.386719 40.332031 C 277.335938 40.332031 284.925781 41.453125 288.6875 42.574219 L 287.234375 50.5625 C 282.085938 49.570312 277.070312 48.84375 272.515625 48.84375 C 266.3125 48.84375 264.070312 49.703125 264.070312 51.878906 C 264.070312 54.320312 266.777344 55.246094 275.421875 59.273438 C 284 63.296875 289.542969 65.078125 289.542969 72.472656 C 289.542969 82.5 279.976562 85.667969 270.605469 85.667969 "/>
  </g>
</svg>
