<svg id="Layer_1" data-name="Layer 1" xmlns="http://www.w3.org/2000/svg" viewBox="0 0 45.06 45">
  <defs>
    <style>.cls-1{fill:none;}.cls-2{fill:#23364e;}</style>
  </defs>
  <title>icon_blast</title>
  <path class="cls-1"
        d="M324.08,220.25c-.44-.47-1.09-1.19-1.53-1.7a4.65,4.65,0,0,0-1.76,1.56c-1.35,1.75-4.15,6.79-2.47,17l2.41.41C319.31,227.33,322.75,221.9,324.08,220.25Z"
        transform="translate(-297.72 -217.03)"/>
  <path class="cls-1"
        d="M318.61,238.63c0,.11,0,.22.06.33.14.68.26,1.33.37,2,.57.11,1.14.22,1.75.36l.54.11c-.11-.76-.24-1.55-.37-2.36Z"
        transform="translate(-297.72 -217.03)"/>
  <path class="cls-1"
        d="M319.29,242.5c1.56,10.59-1,14.51-2.48,15.83l1.91,1.83c3.74-2.59,4.07-8.19,2.84-17.2-.37-.07-.71-.13-1.09-.21Z"
        transform="translate(-297.72 -217.03)"/>
  <path class="cls-1"
        d="M339.67,239.47a4.65,4.65,0,0,0,1.58-1.74c-.5-.45-1.21-1.11-1.67-1.56-1.66,1.29-7.08,4.61-17.08,3.11q.2,1.25.37,2.42C332.89,243.48,337.91,240.78,339.67,239.47Z"
        transform="translate(-297.72 -217.03)"/>
  <path class="cls-1"
        d="M317,238.38c-9.12-1.42-14.78-1.2-17.46,2.53l1.8,1.94c1.35-1.45,5.36-4,16.09-2.2-.08-.45-.17-.91-.27-1.38C317.14,239,317.1,238.68,317,238.38Z"
        transform="translate(-297.72 -217.03)"/>
  <path class="cls-2"
        d="M320.78,220.11a4.65,4.65,0,0,1,1.76-1.56c.44.51,1.09,1.22,1.53,1.7-1.32,1.65-4.77,7.08-3.35,17.24l.83.15.71.11c-1.78-11.71,3.28-16.92,3.33-17l.51-.51-.49-.53s-1.45-1.56-2.1-2.33c-.18-.21-.71-.65-1.76-.13-2,1-7,6.65-5,19.56l1.55.24C316.64,226.89,319.44,221.86,320.78,220.11Z"
        transform="translate(-297.72 -217.03)"/>
  <path class="cls-2"
        d="M318.71,260.16l-1.91-1.83c1.46-1.32,4-5.24,2.48-15.83l-1.54-.3c2.08,13.14-2.35,15.34-2.39,15.35l-1.06.43,4.22,4,.49-.28c4.78-2.8,5.37-8.77,4.09-18.48-.5-.08-1-.2-1.54-.3C322.79,252,322.46,257.56,318.71,260.16Z"
        transform="translate(-297.72 -217.03)"/>
  <path class="cls-2"
        d="M301.39,242.85l-1.8-1.94c2.67-3.73,8.34-4,17.46-2.53-.1-.52-.2-1-.28-1.55-9.83-1.47-15.86-1-18.76,3.77l-.29.48,3.95,4.23.47-1s2.31-4.5,15.61-2.12c-.08-.5-.17-1-.27-1.55C306.75,238.85,302.74,241.4,301.39,242.85Z"
        transform="translate(-297.72 -217.03)"/>
  <path class="cls-2"
        d="M342.42,236.77c-.75-.66-2.29-2.14-2.29-2.14l-.52-.5-.52.5c-.05.05-5.29,5-16.82,3.1,0,.17,0,.33.07.51.06.36.11.69.17,1,10,1.5,15.42-1.82,17.08-3.11.47.44,1.17,1.11,1.67,1.56a4.65,4.65,0,0,1-1.58,1.74c-1.76,1.31-6.78,4-16.8,2.24.08.53.15,1,.22,1.55,12.73,2.1,18.42-2.73,19.43-4.72C343.05,237.5,342.63,237,342.42,236.77Z"
        transform="translate(-297.72 -217.03)"/>
  <path class="cls-2"
        d="M319,240.93c.09.54.17,1.06.25,1.56l1.17.25c.38.08.73.14,1.09.21-.07-.51-.15-1-.23-1.56l-.54-.11C320.18,241.16,319.61,241,319,240.93Z"
        transform="translate(-297.72 -217.03)"/>
  <path class="cls-2" d="M320.87,238.49c-.06-.35-.09-.67-.14-1l-2.41-.41c.08.5.18,1,.29,1.56L321,239Z"
        transform="translate(-297.72 -217.03)"/>
  <path class="cls-2" d="M319,240.93l-1.56-.28c.1.53.19,1,.27,1.55l1.54.3C319.21,242,319.13,241.47,319,240.93Z"
        transform="translate(-297.72 -217.03)"/>
  <path class="cls-2"
        d="M320.73,237.49c0,.34.08.66.14,1l.09.55.34.06c.42.08.81.13,1.21.19-.06-.35-.11-.69-.17-1,0-.18,0-.33-.07-.51l-.71-.11Z"
        transform="translate(-297.72 -217.03)"/>
  <path class="cls-2"
        d="M321.32,241.4c.08.53.16,1.05.23,1.56.52.1,1,.22,1.54.3-.07-.5-.14-1-.22-1.55C322.37,241.62,321.85,241.51,321.32,241.4Z"
        transform="translate(-297.72 -217.03)"/>
  <path class="cls-2" d="M318.61,238.63c-.11-.53-.2-1.05-.29-1.56l-1.55-.24c.08.5.18,1,.28,1.55Z"
        transform="translate(-297.72 -217.03)"/>
  <polygon class="cls-2" points="39.58 19.43 25.95 6.24 26.59 5.62 40.22 18.82 39.58 19.43"/>
  <polygon class="cls-2" points="35.73 20.71 24.48 9.8 25.08 9.21 36.34 20.12 35.73 20.71"/>
  <rect class="cls-2" x="325.22" y="228.73" width="0.75" height="11.3"
        transform="translate(-367.88 83.15) rotate(-45.19)"/>
  <rect class="cls-2" x="322.83" y="233.07" width="0.75" height="6.78"
        transform="translate(-369.73 84.08) rotate(-45.48)"/>
  <rect class="cls-2" x="316.37" y="239.56" width="0.75" height="7.19"
        transform="translate(-377.04 76.97) rotate(-44.83)"/>
  <rect class="cls-2" x="314.43" y="238.89" width="0.75" height="11.87"
        transform="translate(-378.86 75.42) rotate(-44.73)"/>
  <polygon class="cls-2" points="20.62 36.2 8.2 24.13 8.85 23.5 21.27 35.57 20.62 36.2"/>
  <polygon class="cls-2" points="19.3 39.6 5.66 26.11 6.33 25.47 19.97 38.96 19.3 39.6"/>
</svg>
