<?xml version="1.0" encoding="UTF-8" standalone="no"?>
<!DOCTYPE svg PUBLIC "-//W3C//DTD SVG 1.1//EN"
 "http://www.w3.org/Graphics/SVG/1.1/DTD/svg11.dtd">
<!-- Generated by graphviz version 2.40.1 (20161225.0304)
 -->
<!-- Title: dependencies Pages: 1 -->
<svg width="1814pt" height="284pt"
 viewBox="0.00 0.00 1814.00 284.00" xmlns="http://www.w3.org/2000/svg" xmlns:xlink="http://www.w3.org/1999/xlink">
<g id="graph0" class="graph" transform="scale(1 1) rotate(0) translate(4 280)">
<title>dependencies</title>
<polygon fill="#ffffff" stroke="transparent" points="-4,4 -4,-280 1810,-280 1810,4 -4,4"/>
<text text-anchor="start" x="882.0091" y="-42.4" font-family="sans-serif" font-weight="bold" font-size="14.00" fill="#000000">Legend</text>
<polygon fill="#ffffb3" stroke="transparent" points="669,-10 669,-30 689,-30 689,-10 669,-10"/>
<text text-anchor="start" x="692.629" y="-15.4" font-family="sans-serif" font-size="14.00" fill="#000000"> &#160;Declarations</text>
<polygon fill="#8dd3c7" stroke="transparent" points="782,-10 782,-30 802,-30 802,-10 782,-10"/>
<text text-anchor="start" x="805.7251" y="-15.4" font-family="sans-serif" font-size="14.00" fill="#000000"> &#160;Module</text>
<polygon fill="#80b1d3" stroke="transparent" points="868,-10 868,-30 888,-30 888,-10 868,-10"/>
<text text-anchor="start" x="891.7812" y="-15.4" font-family="sans-serif" font-size="14.00" fill="#000000"> &#160;Bootstrap</text>
<polygon fill="#fdb462" stroke="transparent" points="965,-10 965,-30 985,-30 985,-10 965,-10"/>
<text text-anchor="start" x="988.6732" y="-15.4" font-family="sans-serif" font-size="14.00" fill="#000000"> &#160;Providers</text>
<polygon fill="#fb8072" stroke="transparent" points="1061,-10 1061,-30 1081,-30 1081,-10 1061,-10"/>
<text text-anchor="start" x="1084.7258" y="-15.4" font-family="sans-serif" font-size="14.00" fill="#000000"> &#160;Exports</text>
<g id="clust1" class="cluster">
<title>cluster_SharedModule</title>
<polygon fill="none" stroke="#000000" stroke-dasharray="1,5" points="8,-70 8,-268 1798,-268 1798,-70 8,-70"/>
</g>
<g id="clust2" class="cluster">
<title>cluster_SharedModule_declarations</title>
<polygon fill="none" stroke="#000000" points="648,-78 648,-130 1790,-130 1790,-78 648,-78"/>
</g>
<g id="clust10" class="cluster">
<title>cluster_SharedModule_imports</title>
<polygon fill="none" stroke="#000000" points="518,-78 518,-130 640,-130 640,-78 518,-78"/>
</g>
<g id="clust11" class="cluster">
<title>cluster_SharedModule_exports</title>
<polygon fill="none" stroke="#000000" points="267,-208 267,-260 1561,-260 1561,-208 267,-208"/>
</g>
<g id="clust13" class="cluster">
<title>cluster_SharedModule_providers</title>
<polygon fill="none" stroke="#000000" points="16,-78 16,-130 510,-130 510,-78 16,-78"/>
</g>
<!-- SearchComponent -->
<g id="node1" class="node">
<title>SearchComponent</title>
<polygon fill="#ffffb3" stroke="#000000" points="1781.9201,-122 1662.0799,-122 1662.0799,-86 1781.9201,-86 1781.9201,-122"/>
<text text-anchor="middle" x="1722" y="-99.8" font-family="Times,serif" font-size="14.00" fill="#000000">SearchComponent</text>
</g>
<!-- SharedModule -->
<g id="node8" class="node">
<title>SharedModule</title>
<polygon fill="#8dd3c7" stroke="#000000" points="1051.4231,-187 1048.4231,-191 1027.4231,-191 1024.4231,-187 952.5769,-187 952.5769,-151 1051.4231,-151 1051.4231,-187"/>
<text text-anchor="middle" x="1002" y="-164.8" font-family="Times,serif" font-size="14.00" fill="#000000">SharedModule</text>
</g>
<!-- SearchComponent&#45;&gt;SharedModule -->
<g id="edge1" class="edge">
<title>SearchComponent&#45;&gt;SharedModule</title>
<path fill="none" stroke="#000000" d="M1722,-122.1061C1722,-141.3391 1722,-169 1722,-169 1722,-169 1061.4885,-169 1061.4885,-169"/>
<polygon fill="#000000" stroke="#000000" points="1061.4886,-165.5001 1051.4885,-169 1061.4885,-172.5001 1061.4886,-165.5001"/>
</g>
<!-- HighlightPipe -->
<g id="node2" class="node">
<title>HighlightPipe</title>
<polygon fill="#ffffb3" stroke="#000000" points="1644.0578,-122 1549.9422,-122 1549.9422,-86 1644.0578,-86 1644.0578,-122"/>
<text text-anchor="middle" x="1597" y="-99.8" font-family="Times,serif" font-size="14.00" fill="#000000">HighlightPipe</text>
</g>
<!-- HighlightPipe&#45;&gt;SharedModule -->
<g id="edge2" class="edge">
<title>HighlightPipe&#45;&gt;SharedModule</title>
<path fill="none" stroke="#000000" d="M1598.7569,-122.302C1598.7569,-140.2699 1598.7569,-165 1598.7569,-165 1598.7569,-165 1061.3428,-165 1061.3428,-165"/>
<polygon fill="#000000" stroke="#000000" points="1061.3429,-161.5001 1051.3428,-165 1061.3428,-168.5001 1061.3429,-161.5001"/>
</g>
<!-- ScrollToTopComponent -->
<g id="node3" class="node">
<title>ScrollToTopComponent</title>
<polygon fill="#ffffb3" stroke="#000000" points="1531.3766,-122 1378.6234,-122 1378.6234,-86 1531.3766,-86 1531.3766,-122"/>
<text text-anchor="middle" x="1455" y="-99.8" font-family="Times,serif" font-size="14.00" fill="#000000">ScrollToTopComponent</text>
</g>
<!-- ScrollToTopComponent&#45;&gt;SharedModule -->
<g id="edge3" class="edge">
<title>ScrollToTopComponent&#45;&gt;SharedModule</title>
<path fill="none" stroke="#000000" d="M1401.5107,-122.027C1401.5107,-138.3976 1401.5107,-160 1401.5107,-160 1401.5107,-160 1061.3885,-160 1061.3885,-160"/>
<polygon fill="#000000" stroke="#000000" points="1061.3886,-156.5001 1051.3885,-160 1061.3885,-163.5001 1061.3886,-156.5001"/>
</g>
<!-- CustomContentDirective -->
<g id="node4" class="node">
<title>CustomContentDirective</title>
<polygon fill="#ffffb3" stroke="#000000" points="1360.9776,-122 1205.0224,-122 1205.0224,-86 1360.9776,-86 1360.9776,-122"/>
<text text-anchor="middle" x="1283" y="-99.8" font-family="Times,serif" font-size="14.00" fill="#000000">CustomContentDirective</text>
</g>
<!-- CustomContentDirective&#45;&gt;SharedModule -->
<g id="edge4" class="edge">
<title>CustomContentDirective&#45;&gt;SharedModule</title>
<path fill="none" stroke="#000000" d="M1244.5198,-122.1871C1244.5198,-137.1824 1244.5198,-156 1244.5198,-156 1244.5198,-156 1061.3698,-156 1061.3698,-156"/>
<polygon fill="#000000" stroke="#000000" points="1061.3699,-152.5001 1051.3698,-156 1061.3698,-159.5001 1061.3699,-152.5001"/>
</g>
<!-- IdgLevelIndicatorComponent -->
<g id="node5" class="node">
<title>IdgLevelIndicatorComponent</title>
<polygon fill="#ffffb3" stroke="#000000" points="1187.3974,-122 1004.6026,-122 1004.6026,-86 1187.3974,-86 1187.3974,-122"/>
<text text-anchor="middle" x="1096" y="-99.8" font-family="Times,serif" font-size="14.00" fill="#000000">IdgLevelIndicatorComponent</text>
</g>
<!-- IdgLevelIndicatorComponent&#45;&gt;SharedModule -->
<g id="edge5" class="edge">
<title>IdgLevelIndicatorComponent&#45;&gt;SharedModule</title>
<path fill="none" stroke="#000000" d="M1028.0063,-122.1061C1028.0063,-122.1061 1028.0063,-140.991 1028.0063,-140.991"/>
<polygon fill="#000000" stroke="#000000" points="1024.5064,-140.9909 1028.0063,-150.991 1031.5064,-140.991 1024.5064,-140.9909"/>
</g>
<!-- GenericTableComponent -->
<g id="node6" class="node">
<title>GenericTableComponent</title>
<polygon fill="#ffffb3" stroke="#000000" points="986.5072,-122 829.4928,-122 829.4928,-86 986.5072,-86 986.5072,-122"/>
<text text-anchor="middle" x="908" y="-99.8" font-family="Times,serif" font-size="14.00" fill="#000000">GenericTableComponent</text>
</g>
<!-- GenericTableComponent&#45;&gt;SharedModule -->
<g id="edge6" class="edge">
<title>GenericTableComponent&#45;&gt;SharedModule</title>
<path fill="none" stroke="#000000" d="M969.7711,-122.1061C969.7711,-122.1061 969.7711,-140.991 969.7711,-140.991"/>
<polygon fill="#000000" stroke="#000000" points="966.2711,-140.9909 969.7711,-150.991 973.2711,-140.991 966.2711,-140.9909"/>
</g>
<!-- TermDisplayComponent -->
<g id="node7" class="node">
<title>TermDisplayComponent</title>
<polygon fill="#ffffb3" stroke="#000000" points="811.6979,-122 656.3021,-122 656.3021,-86 811.6979,-86 811.6979,-122"/>
<text text-anchor="middle" x="734" y="-99.8" font-family="Times,serif" font-size="14.00" fill="#000000">TermDisplayComponent</text>
</g>
<!-- TermDisplayComponent&#45;&gt;SharedModule -->
<g id="edge7" class="edge">
<title>TermDisplayComponent&#45;&gt;SharedModule</title>
<path fill="none" stroke="#000000" d="M759.8663,-122.1871C759.8663,-137.1824 759.8663,-156 759.8663,-156 759.8663,-156 942.7088,-156 942.7088,-156"/>
<polygon fill="#000000" stroke="#000000" points="942.7088,-159.5001 952.7088,-156 942.7087,-152.5001 942.7088,-159.5001"/>
</g>
<!-- MaterialModule  -->
<g id="node10" class="node">
<title>MaterialModule </title>
<polygon fill="#fb8072" stroke="#000000" points="1553.4716,-252 1442.5284,-252 1442.5284,-216 1553.4716,-216 1553.4716,-252"/>
<text text-anchor="middle" x="1498" y="-229.8" font-family="Times,serif" font-size="14.00" fill="#000000">MaterialModule </text>
</g>
<!-- SharedModule&#45;&gt;MaterialModule  -->
<g id="edge9" class="edge">
<title>SharedModule&#45;&gt;MaterialModule </title>
<path fill="none" stroke="#000000" stroke-dasharray="5,2" d="M1051.6347,-174C1175.2707,-174 1487.1015,-174 1487.1015,-174 1487.1015,-174 1487.1015,-205.998 1487.1015,-205.998"/>
<polygon fill="#000000" stroke="#000000" points="1483.6016,-205.998 1487.1015,-215.998 1490.6016,-205.9981 1483.6016,-205.998"/>
</g>
<!-- SearchComponent  -->
<g id="node11" class="node">
<title>SearchComponent </title>
<polygon fill="#fb8072" stroke="#000000" points="1424.4194,-252 1301.5806,-252 1301.5806,-216 1424.4194,-216 1424.4194,-252"/>
<text text-anchor="middle" x="1363" y="-229.8" font-family="Times,serif" font-size="14.00" fill="#000000">SearchComponent </text>
</g>
<!-- SharedModule&#45;&gt;SearchComponent  -->
<g id="edge10" class="edge">
<title>SharedModule&#45;&gt;SearchComponent </title>
<path fill="none" stroke="#000000" stroke-dasharray="5,2" d="M1051.2942,-178C1143.148,-178 1331.2646,-178 1331.2646,-178 1331.2646,-178 1331.2646,-205.973 1331.2646,-205.973"/>
<polygon fill="#000000" stroke="#000000" points="1327.7646,-205.973 1331.2646,-215.973 1334.7646,-205.973 1327.7646,-205.973"/>
</g>
<!-- HighlightPipe  -->
<g id="node12" class="node">
<title>HighlightPipe </title>
<polygon fill="#fb8072" stroke="#000000" points="1284.0568,-252 1185.9432,-252 1185.9432,-216 1284.0568,-216 1284.0568,-252"/>
<text text-anchor="middle" x="1235" y="-229.8" font-family="Times,serif" font-size="14.00" fill="#000000">HighlightPipe </text>
</g>
<!-- SharedModule&#45;&gt;HighlightPipe  -->
<g id="edge11" class="edge">
<title>SharedModule&#45;&gt;HighlightPipe </title>
<path fill="none" stroke="#000000" stroke-dasharray="5,2" d="M1051.2318,-183C1108.7373,-183 1196.1049,-183 1196.1049,-183 1196.1049,-183 1196.1049,-205.8757 1196.1049,-205.8757"/>
<polygon fill="#000000" stroke="#000000" points="1192.6049,-205.8757 1196.1049,-215.8757 1199.6049,-205.8757 1192.6049,-205.8757"/>
</g>
<!-- ScrollToTopComponent  -->
<g id="node13" class="node">
<title>ScrollToTopComponent </title>
<polygon fill="#fb8072" stroke="#000000" points="1168.3771,-252 1011.6229,-252 1011.6229,-216 1168.3771,-216 1168.3771,-252"/>
<text text-anchor="middle" x="1090" y="-229.8" font-family="Times,serif" font-size="14.00" fill="#000000">ScrollToTopComponent </text>
</g>
<!-- SharedModule&#45;&gt;ScrollToTopComponent  -->
<g id="edge12" class="edge">
<title>SharedModule&#45;&gt;ScrollToTopComponent </title>
<path fill="none" stroke="#000000" stroke-dasharray="5,2" d="M1031.5114,-187.1061C1031.5114,-187.1061 1031.5114,-205.991 1031.5114,-205.991"/>
<polygon fill="#000000" stroke="#000000" points="1028.0115,-205.9909 1031.5114,-215.991 1035.0115,-205.991 1028.0115,-205.9909"/>
</g>
<!-- CustomContentDirective  -->
<g id="node14" class="node">
<title>CustomContentDirective </title>
<polygon fill="#fb8072" stroke="#000000" points="993.9783,-252 834.0217,-252 834.0217,-216 993.9783,-216 993.9783,-252"/>
<text text-anchor="middle" x="914" y="-229.8" font-family="Times,serif" font-size="14.00" fill="#000000">CustomContentDirective </text>
</g>
<!-- SharedModule&#45;&gt;CustomContentDirective  -->
<g id="edge13" class="edge">
<title>SharedModule&#45;&gt;CustomContentDirective </title>
<path fill="none" stroke="#000000" stroke-dasharray="5,2" d="M973.2639,-187.1061C973.2639,-187.1061 973.2639,-205.991 973.2639,-205.991"/>
<polygon fill="#000000" stroke="#000000" points="969.7639,-205.9909 973.2639,-215.991 976.7639,-205.991 969.7639,-205.9909"/>
</g>
<!-- IdgLevelIndicatorComponent  -->
<g id="node15" class="node">
<title>IdgLevelIndicatorComponent </title>
<polygon fill="#fb8072" stroke="#000000" points="815.897,-252 630.103,-252 630.103,-216 815.897,-216 815.897,-252"/>
<text text-anchor="middle" x="723" y="-229.8" font-family="Times,serif" font-size="14.00" fill="#000000">IdgLevelIndicatorComponent </text>
</g>
<!-- SharedModule&#45;&gt;IdgLevelIndicatorComponent  -->
<g id="edge14" class="edge">
<title>SharedModule&#45;&gt;IdgLevelIndicatorComponent </title>
<path fill="none" stroke="#000000" stroke-dasharray="5,2" d="M952.4819,-183C868.7323,-183 708.1337,-183 708.1337,-183 708.1337,-183 708.1337,-205.8757 708.1337,-205.8757"/>
<polygon fill="#000000" stroke="#000000" points="704.6338,-205.8757 708.1337,-215.8757 711.6338,-205.8757 704.6338,-205.8757"/>
</g>
<!-- GenericTableComponent  -->
<g id="node16" class="node">
<title>GenericTableComponent </title>
<polygon fill="#fb8072" stroke="#000000" points="612.5064,-252 451.4936,-252 451.4936,-216 612.5064,-216 612.5064,-252"/>
<text text-anchor="middle" x="532" y="-229.8" font-family="Times,serif" font-size="14.00" fill="#000000">GenericTableComponent </text>
</g>
<!-- SharedModule&#45;&gt;GenericTableComponent  -->
<g id="edge15" class="edge">
<title>SharedModule&#45;&gt;GenericTableComponent </title>
<path fill="none" stroke="#000000" stroke-dasharray="5,2" d="M952.752,-178C839.2654,-178 569.009,-178 569.009,-178 569.009,-178 569.009,-205.973 569.009,-205.973"/>
<polygon fill="#000000" stroke="#000000" points="565.509,-205.973 569.009,-215.973 572.509,-205.973 565.509,-205.973"/>
</g>
<!-- TermDisplayComponent  -->
<g id="node17" class="node">
<title>TermDisplayComponent </title>
<polygon fill="#fb8072" stroke="#000000" points="433.1981,-252 274.8019,-252 274.8019,-216 433.1981,-216 433.1981,-252"/>
<text text-anchor="middle" x="354" y="-229.8" font-family="Times,serif" font-size="14.00" fill="#000000">TermDisplayComponent </text>
</g>
<!-- SharedModule&#45;&gt;TermDisplayComponent  -->
<g id="edge16" class="edge">
<title>SharedModule&#45;&gt;TermDisplayComponent </title>
<path fill="none" stroke="#000000" stroke-dasharray="5,2" d="M952.7628,-174C801.5424,-174 354,-174 354,-174 354,-174 354,-205.998 354,-205.998"/>
<polygon fill="#000000" stroke="#000000" points="350.5001,-205.998 354,-215.998 357.5001,-205.9981 350.5001,-205.998"/>
</g>
<!-- MaterialModule -->
<g id="node9" class="node">
<title>MaterialModule</title>
<polygon fill="#8dd3c7" stroke="#000000" points="632.4706,-122 629.4706,-126 608.4706,-126 605.4706,-122 525.5294,-122 525.5294,-86 632.4706,-86 632.4706,-122"/>
<text text-anchor="middle" x="579" y="-99.8" font-family="Times,serif" font-size="14.00" fill="#000000">MaterialModule</text>
</g>
<!-- MaterialModule&#45;&gt;SharedModule -->
<g id="edge8" class="edge">
<title>MaterialModule&#45;&gt;SharedModule</title>
<path fill="none" stroke="#000000" d="M621.2774,-122.027C621.2774,-138.3976 621.2774,-160 621.2774,-160 621.2774,-160 942.6175,-160 942.6175,-160"/>
<polygon fill="#000000" stroke="#000000" points="942.6175,-163.5001 952.6175,-160 942.6174,-156.5001 942.6175,-163.5001"/>
</g>
<!-- ComponentLookupService -->
<g id="node18" class="node">
<title>ComponentLookupService</title>
<ellipse fill="#fdb462" stroke="#000000" cx="387" cy="-104" rx="115.1976" ry="18"/>
<text text-anchor="middle" x="387" y="-99.8" font-family="Times,serif" font-size="14.00" fill="#000000">ComponentLookupService</text>
</g>
<!-- ComponentLookupService&#45;&gt;SharedModule -->
<g id="edge17" class="edge">
<title>ComponentLookupService&#45;&gt;SharedModule</title>
<path fill="none" stroke="#000000" d="M476.7978,-115.4736C476.7978,-133.1438 476.7978,-165 476.7978,-165 476.7978,-165 942.5903,-165 942.5903,-165"/>
<polygon fill="#000000" stroke="#000000" points="942.5903,-168.5001 952.5903,-165 942.5902,-161.5001 942.5903,-168.5001"/>
</g>
<!-- ComponentInjectorService -->
<g id="node19" class="node">
<title>ComponentInjectorService</title>
<ellipse fill="#fdb462" stroke="#000000" cx="139" cy="-104" rx="115.1686" ry="18"/>
<text text-anchor="middle" x="139" y="-99.8" font-family="Times,serif" font-size="14.00" fill="#000000">ComponentInjectorService</text>
</g>
<!-- ComponentInjectorService&#45;&gt;SharedModule -->
<g id="edge18" class="edge">
<title>ComponentInjectorService&#45;&gt;SharedModule</title>
<path fill="none" stroke="#000000" d="M139,-122.1061C139,-141.3391 139,-169 139,-169 139,-169 942.5017,-169 942.5017,-169"/>
<polygon fill="#000000" stroke="#000000" points="942.5018,-172.5001 952.5017,-169 942.5017,-165.5001 942.5018,-172.5001"/>
</g>
</g>
</svg>
