<?xml version="1.0" encoding="UTF-8" standalone="no"?>
<!DOCTYPE svg PUBLIC "-//W3C//DTD SVG 1.1//EN"
 "http://www.w3.org/Graphics/SVG/1.1/DTD/svg11.dtd">
<!-- Generated by graphviz version 2.40.1 (20161225.0304)
 -->
<!-- Title: dependencies Pages: 1 -->
<svg width="2990pt" height="211pt"
 viewBox="0.00 0.00 2990.00 211.00" xmlns="http://www.w3.org/2000/svg" xmlns:xlink="http://www.w3.org/1999/xlink">
<g id="graph0" class="graph" transform="scale(1 1) rotate(0) translate(4 207)">
<title>dependencies</title>
<polygon fill="#ffffff" stroke="transparent" points="-4,4 -4,-207 2986,-207 2986,4 -4,4"/>
<text text-anchor="start" x="1470.0091" y="-42.4" font-family="sans-serif" font-weight="bold" font-size="14.00" fill="#000000">Legend</text>
<polygon fill="#ffffb3" stroke="transparent" points="1257,-10 1257,-30 1277,-30 1277,-10 1257,-10"/>
<text text-anchor="start" x="1280.629" y="-15.4" font-family="sans-serif" font-size="14.00" fill="#000000"> &#160;Declarations</text>
<polygon fill="#8dd3c7" stroke="transparent" points="1370,-10 1370,-30 1390,-30 1390,-10 1370,-10"/>
<text text-anchor="start" x="1393.7251" y="-15.4" font-family="sans-serif" font-size="14.00" fill="#000000"> &#160;Module</text>
<polygon fill="#80b1d3" stroke="transparent" points="1456,-10 1456,-30 1476,-30 1476,-10 1456,-10"/>
<text text-anchor="start" x="1479.7812" y="-15.4" font-family="sans-serif" font-size="14.00" fill="#000000"> &#160;Bootstrap</text>
<polygon fill="#fdb462" stroke="transparent" points="1553,-10 1553,-30 1573,-30 1573,-10 1553,-10"/>
<text text-anchor="start" x="1576.6732" y="-15.4" font-family="sans-serif" font-size="14.00" fill="#000000"> &#160;Providers</text>
<polygon fill="#fb8072" stroke="transparent" points="1649,-10 1649,-30 1669,-30 1669,-10 1649,-10"/>
<text text-anchor="start" x="1672.7258" y="-15.4" font-family="sans-serif" font-size="14.00" fill="#000000"> &#160;Exports</text>
<g id="clust1" class="cluster">
<title>cluster_PharosMainModule</title>
<polygon fill="none" stroke="#000000" stroke-dasharray="1,5" points="8,-70 8,-195 2974,-195 2974,-70 8,-70"/>
</g>
<g id="clust2" class="cluster">
<title>cluster_PharosMainModule_declarations</title>
<polygon fill="none" stroke="#000000" points="328,-78 328,-130 2966,-130 2966,-78 328,-78"/>
</g>
<g id="clust18" class="cluster">
<title>cluster_PharosMainModule_imports</title>
<polygon fill="none" stroke="#000000" points="16,-78 16,-130 320,-130 320,-78 16,-78"/>
</g>
<!-- NcatsHeaderComponent -->
<g id="node1" class="node">
<title>NcatsHeaderComponent</title>
<polygon fill="#ffffb3" stroke="#000000" points="2957.6149,-122 2804.3851,-122 2804.3851,-86 2957.6149,-86 2957.6149,-122"/>
<text text-anchor="middle" x="2881" y="-99.8" font-family="Times,serif" font-size="14.00" fill="#000000">NcatsHeaderComponent</text>
</g>
<!-- PharosMainModule -->
<g id="node16" class="node">
<title>PharosMainModule</title>
<polygon fill="#8dd3c7" stroke="#000000" points="1547.7022,-187 1544.7022,-191 1523.7022,-191 1520.7022,-187 1420.2978,-187 1420.2978,-151 1547.7022,-151 1547.7022,-187"/>
<text text-anchor="middle" x="1484" y="-164.8" font-family="Times,serif" font-size="14.00" fill="#000000">PharosMainModule</text>
</g>
<!-- NcatsHeaderComponent&#45;&gt;PharosMainModule -->
<g id="edge1" class="edge">
<title>NcatsHeaderComponent&#45;&gt;PharosMainModule</title>
<path fill="none" stroke="#000000" d="M2881,-122.3228C2881,-145.6602 2881,-183 2881,-183 2881,-183 1557.6563,-183 1557.6563,-183"/>
<polygon fill="#000000" stroke="#000000" points="1557.6564,-179.5001 1547.6563,-183 1557.6563,-186.5001 1557.6564,-179.5001"/>
</g>
<!-- NcatsFooterComponent -->
<g id="node2" class="node">
<title>NcatsFooterComponent</title>
<polygon fill="#ffffb3" stroke="#000000" points="2785.752,-122 2636.248,-122 2636.248,-86 2785.752,-86 2785.752,-122"/>
<text text-anchor="middle" x="2711" y="-99.8" font-family="Times,serif" font-size="14.00" fill="#000000">NcatsFooterComponent</text>
</g>
<!-- NcatsFooterComponent&#45;&gt;PharosMainModule -->
<g id="edge2" class="edge">
<title>NcatsFooterComponent&#45;&gt;PharosMainModule</title>
<path fill="none" stroke="#000000" d="M2711,-122.1554C2711,-144.3519 2711,-179 2711,-179 2711,-179 1557.8125,-179 1557.8125,-179"/>
<polygon fill="#000000" stroke="#000000" points="1557.8126,-175.5001 1547.8125,-179 1557.8125,-182.5001 1557.8126,-175.5001"/>
</g>
<!-- PharosMainComponent -->
<g id="node3" class="node">
<title>PharosMainComponent</title>
<polygon fill="#ffffb3" stroke="#000000" points="2618.4846,-122 2469.5154,-122 2469.5154,-86 2618.4846,-86 2618.4846,-122"/>
<text text-anchor="middle" x="2544" y="-99.8" font-family="Times,serif" font-size="14.00" fill="#000000">PharosMainComponent</text>
</g>
<!-- PharosMainComponent&#45;&gt;PharosMainModule -->
<g id="edge3" class="edge">
<title>PharosMainComponent&#45;&gt;PharosMainModule</title>
<path fill="none" stroke="#000000" d="M2544,-122.2843C2544,-143.3211 2544,-175 2544,-175 2544,-175 1557.9206,-175 1557.9206,-175"/>
<polygon fill="#000000" stroke="#000000" points="1557.9207,-171.5001 1547.9206,-175 1557.9206,-178.5001 1557.9207,-171.5001"/>
</g>
<!-- BreadcrumbComponent -->
<g id="node4" class="node">
<title>BreadcrumbComponent</title>
<polygon fill="#ffffb3" stroke="#000000" points="2451.0253,-122 2300.9747,-122 2300.9747,-86 2451.0253,-86 2451.0253,-122"/>
<text text-anchor="middle" x="2376" y="-99.8" font-family="Times,serif" font-size="14.00" fill="#000000">BreadcrumbComponent</text>
</g>
<!-- BreadcrumbComponent&#45;&gt;PharosMainModule -->
<g id="edge4" class="edge">
<title>BreadcrumbComponent&#45;&gt;PharosMainModule</title>
<path fill="none" stroke="#000000" d="M2376,-122.308C2376,-142.1455 2376,-171 2376,-171 2376,-171 1557.7925,-171 1557.7925,-171"/>
<polygon fill="#000000" stroke="#000000" points="1557.7925,-167.5001 1547.7925,-171 1557.7924,-174.5001 1557.7925,-167.5001"/>
</g>
<!-- DataListComponent -->
<g id="node5" class="node">
<title>DataListComponent</title>
<polygon fill="#ffffb3" stroke="#000000" points="2282.538,-122 2153.462,-122 2153.462,-86 2282.538,-86 2282.538,-122"/>
<text text-anchor="middle" x="2218" y="-99.8" font-family="Times,serif" font-size="14.00" fill="#000000">DataListComponent</text>
</g>
<!-- DataListComponent&#45;&gt;PharosMainModule -->
<g id="edge5" class="edge">
<title>DataListComponent&#45;&gt;PharosMainModule</title>
<path fill="none" stroke="#000000" d="M2218,-122.2222C2218,-140.8285 2218,-167 2218,-167 2218,-167 1557.8537,-167 1557.8537,-167"/>
<polygon fill="#000000" stroke="#000000" points="1557.8537,-163.5001 1547.8537,-167 1557.8536,-170.5001 1557.8537,-163.5001"/>
</g>
<!-- DataListVisualizationsComponent -->
<g id="node6" class="node">
<title>DataListVisualizationsComponent</title>
<polygon fill="#ffffb3" stroke="#000000" points="2134.6301,-122 1925.3699,-122 1925.3699,-86 2134.6301,-86 2134.6301,-122"/>
<text text-anchor="middle" x="2030" y="-99.8" font-family="Times,serif" font-size="14.00" fill="#000000">DataListVisualizationsComponent</text>
</g>
<!-- DataListVisualizationsComponent&#45;&gt;PharosMainModule -->
<g id="edge6" class="edge">
<title>DataListVisualizationsComponent&#45;&gt;PharosMainModule</title>
<path fill="none" stroke="#000000" d="M2030,-122.0225C2030,-139.3734 2030,-163 2030,-163 2030,-163 1557.7017,-163 1557.7017,-163"/>
<polygon fill="#000000" stroke="#000000" points="1557.7018,-159.5001 1547.7017,-163 1557.7017,-166.5001 1557.7018,-159.5001"/>
</g>
<!-- PharosPaginatorComponent -->
<g id="node7" class="node">
<title>PharosPaginatorComponent</title>
<polygon fill="#ffffb3" stroke="#000000" points="1907.5884,-122 1734.4116,-122 1734.4116,-86 1907.5884,-86 1907.5884,-122"/>
<text text-anchor="middle" x="1821" y="-99.8" font-family="Times,serif" font-size="14.00" fill="#000000">PharosPaginatorComponent</text>
</g>
<!-- PharosPaginatorComponent&#45;&gt;PharosMainModule -->
<g id="edge7" class="edge">
<title>PharosPaginatorComponent&#45;&gt;PharosMainModule</title>
<path fill="none" stroke="#000000" d="M1821,-122.0091C1821,-138.0494 1821,-159 1821,-159 1821,-159 1557.7833,-159 1557.7833,-159"/>
<polygon fill="#000000" stroke="#000000" points="1557.7833,-155.5001 1547.7833,-159 1557.7833,-162.5001 1557.7833,-155.5001"/>
</g>
<!-- FilterPanelComponent -->
<g id="node8" class="node">
<title>FilterPanelComponent</title>
<polygon fill="#ffffb3" stroke="#000000" points="1716.2646,-122 1573.7354,-122 1573.7354,-86 1716.2646,-86 1716.2646,-122"/>
<text text-anchor="middle" x="1645" y="-99.8" font-family="Times,serif" font-size="14.00" fill="#000000">FilterPanelComponent</text>
</g>
<!-- FilterPanelComponent&#45;&gt;PharosMainModule -->
<g id="edge8" class="edge">
<title>FilterPanelComponent&#45;&gt;PharosMainModule</title>
<path fill="none" stroke="#000000" d="M1645,-122.1243C1645,-136.7832 1645,-155 1645,-155 1645,-155 1557.6315,-155 1557.6315,-155"/>
<polygon fill="#000000" stroke="#000000" points="1557.6315,-151.5001 1547.6315,-155 1557.6314,-158.5001 1557.6315,-151.5001"/>
</g>
<!-- FacetTableComponent -->
<g id="node9" class="node">
<title>FacetTableComponent</title>
<polygon fill="#ffffb3" stroke="#000000" points="1555.5226,-122 1412.4774,-122 1412.4774,-86 1555.5226,-86 1555.5226,-122"/>
<text text-anchor="middle" x="1484" y="-99.8" font-family="Times,serif" font-size="14.00" fill="#000000">FacetTableComponent</text>
</g>
<!-- FacetTableComponent&#45;&gt;PharosMainModule -->
<g id="edge9" class="edge">
<title>FacetTableComponent&#45;&gt;PharosMainModule</title>
<path fill="none" stroke="#000000" d="M1484,-122.1061C1484,-122.1061 1484,-140.991 1484,-140.991"/>
<polygon fill="#000000" stroke="#000000" points="1480.5001,-140.9909 1484,-150.991 1487.5001,-140.991 1480.5001,-140.9909"/>
</g>
<!-- FacetListComponent -->
<g id="node10" class="node">
<title>FacetListComponent</title>
<polygon fill="#ffffb3" stroke="#000000" points="1394.9285,-122 1261.0715,-122 1261.0715,-86 1394.9285,-86 1394.9285,-122"/>
<text text-anchor="middle" x="1328" y="-99.8" font-family="Times,serif" font-size="14.00" fill="#000000">FacetListComponent</text>
</g>
<!-- FacetListComponent&#45;&gt;PharosMainModule -->
<g id="edge10" class="edge">
<title>FacetListComponent&#45;&gt;PharosMainModule</title>
<path fill="none" stroke="#000000" d="M1328,-122.1243C1328,-136.7832 1328,-155 1328,-155 1328,-155 1410.0987,-155 1410.0987,-155"/>
<polygon fill="#000000" stroke="#000000" points="1410.0988,-158.5001 1420.0987,-155 1410.0987,-151.5001 1410.0988,-158.5001"/>
</g>
<!-- DonutChartComponent -->
<g id="node11" class="node">
<title>DonutChartComponent</title>
<polygon fill="#ffffb3" stroke="#000000" points="1243.9326,-122 1096.0674,-122 1096.0674,-86 1243.9326,-86 1243.9326,-122"/>
<text text-anchor="middle" x="1170" y="-99.8" font-family="Times,serif" font-size="14.00" fill="#000000">DonutChartComponent</text>
</g>
<!-- DonutChartComponent&#45;&gt;PharosMainModule -->
<g id="edge11" class="edge">
<title>DonutChartComponent&#45;&gt;PharosMainModule</title>
<path fill="none" stroke="#000000" d="M1170,-122.0091C1170,-138.0494 1170,-159 1170,-159 1170,-159 1410.0789,-159 1410.0789,-159"/>
<polygon fill="#000000" stroke="#000000" points="1410.079,-162.5001 1420.0789,-159 1410.0789,-155.5001 1410.079,-162.5001"/>
</g>
<!-- WordCloudChartComponent -->
<g id="node12" class="node">
<title>WordCloudChartComponent</title>
<polygon fill="#ffffb3" stroke="#000000" points="1078.0378,-122 899.9622,-122 899.9622,-86 1078.0378,-86 1078.0378,-122"/>
<text text-anchor="middle" x="989" y="-99.8" font-family="Times,serif" font-size="14.00" fill="#000000">WordCloudChartComponent</text>
</g>
<!-- WordCloudChartComponent&#45;&gt;PharosMainModule -->
<g id="edge12" class="edge">
<title>WordCloudChartComponent&#45;&gt;PharosMainModule</title>
<path fill="none" stroke="#000000" d="M989,-122.0225C989,-139.3734 989,-163 989,-163 989,-163 1410.3008,-163 1410.3008,-163"/>
<polygon fill="#000000" stroke="#000000" points="1410.3008,-166.5001 1420.3008,-163 1410.3007,-159.5001 1410.3008,-166.5001"/>
</g>
<!-- SunburstChartComponent -->
<g id="node13" class="node">
<title>SunburstChartComponent</title>
<polygon fill="#ffffb3" stroke="#000000" points="882.2133,-122 719.7867,-122 719.7867,-86 882.2133,-86 882.2133,-122"/>
<text text-anchor="middle" x="801" y="-99.8" font-family="Times,serif" font-size="14.00" fill="#000000">SunburstChartComponent</text>
</g>
<!-- SunburstChartComponent&#45;&gt;PharosMainModule -->
<g id="edge13" class="edge">
<title>SunburstChartComponent&#45;&gt;PharosMainModule</title>
<path fill="none" stroke="#000000" d="M801,-122.2222C801,-140.8285 801,-167 801,-167 801,-167 1410.3583,-167 1410.3583,-167"/>
<polygon fill="#000000" stroke="#000000" points="1410.3584,-170.5001 1420.3583,-167 1410.3583,-163.5001 1410.3584,-170.5001"/>
</g>
<!-- VisualizationOptionsComponent -->
<g id="node14" class="node">
<title>VisualizationOptionsComponent</title>
<polygon fill="#ffffb3" stroke="#000000" points="702.313,-122 501.687,-122 501.687,-86 702.313,-86 702.313,-122"/>
<text text-anchor="middle" x="602" y="-99.8" font-family="Times,serif" font-size="14.00" fill="#000000">VisualizationOptionsComponent</text>
</g>
<!-- VisualizationOptionsComponent&#45;&gt;PharosMainModule -->
<g id="edge14" class="edge">
<title>VisualizationOptionsComponent&#45;&gt;PharosMainModule</title>
<path fill="none" stroke="#000000" d="M602,-122.308C602,-142.1455 602,-171 602,-171 602,-171 1410.2139,-171 1410.2139,-171"/>
<polygon fill="#000000" stroke="#000000" points="1410.214,-174.5001 1420.2139,-171 1410.2139,-167.5001 1410.214,-174.5001"/>
</g>
<!-- DataDetailsComponent -->
<g id="node15" class="node">
<title>DataDetailsComponent</title>
<polygon fill="#ffffb3" stroke="#000000" points="483.9116,-122 336.0884,-122 336.0884,-86 483.9116,-86 483.9116,-122"/>
<text text-anchor="middle" x="410" y="-99.8" font-family="Times,serif" font-size="14.00" fill="#000000">DataDetailsComponent</text>
</g>
<!-- DataDetailsComponent&#45;&gt;PharosMainModule -->
<g id="edge15" class="edge">
<title>DataDetailsComponent&#45;&gt;PharosMainModule</title>
<path fill="none" stroke="#000000" d="M410,-122.2843C410,-143.3211 410,-175 410,-175 410,-175 1410.0328,-175 1410.0328,-175"/>
<polygon fill="#000000" stroke="#000000" points="1410.0328,-178.5001 1420.0328,-175 1410.0327,-171.5001 1410.0328,-178.5001"/>
</g>
<!-- SharedModule -->
<g id="node17" class="node">
<title>SharedModule</title>
<polygon fill="#8dd3c7" stroke="#000000" points="312.4231,-122 309.4231,-126 288.4231,-126 285.4231,-122 213.5769,-122 213.5769,-86 312.4231,-86 312.4231,-122"/>
<text text-anchor="middle" x="263" y="-99.8" font-family="Times,serif" font-size="14.00" fill="#000000">SharedModule</text>
</g>
<!-- SharedModule&#45;&gt;PharosMainModule -->
<g id="edge16" class="edge">
<title>SharedModule&#45;&gt;PharosMainModule</title>
<path fill="none" stroke="#000000" d="M263,-122.1554C263,-144.3519 263,-179 263,-179 263,-179 1410.0729,-179 1410.0729,-179"/>
<polygon fill="#000000" stroke="#000000" points="1410.0729,-182.5001 1420.0729,-179 1410.0728,-175.5001 1410.0729,-182.5001"/>
</g>
<!-- PharosMainRoutingModule -->
<g id="node18" class="node">
<title>PharosMainRoutingModule</title>
<polygon fill="#8dd3c7" stroke="#000000" points="196.3201,-122 193.3201,-126 172.3201,-126 169.3201,-122 23.6799,-122 23.6799,-86 196.3201,-86 196.3201,-122"/>
<text text-anchor="middle" x="110" y="-99.8" font-family="Times,serif" font-size="14.00" fill="#000000">PharosMainRoutingModule</text>
</g>
<!-- PharosMainRoutingModule&#45;&gt;PharosMainModule -->
<g id="edge17" class="edge">
<title>PharosMainRoutingModule&#45;&gt;PharosMainModule</title>
<path fill="none" stroke="#000000" d="M110,-122.3228C110,-145.6602 110,-183 110,-183 110,-183 1410.0291,-183 1410.0291,-183"/>
<polygon fill="#000000" stroke="#000000" points="1410.0292,-186.5001 1420.0291,-183 1410.0291,-179.5001 1410.0292,-186.5001"/>
</g>
</g>
</svg>
