<?xml version="1.0" encoding="UTF-8" standalone="no"?>
<!DOCTYPE svg PUBLIC "-//W3C//DTD SVG 1.1//EN"
 "http://www.w3.org/Graphics/SVG/1.1/DTD/svg11.dtd">
<!-- Generated by graphviz version 2.40.1 (20161225.0304)
 -->
<!-- Title: dependencies Pages: 1 -->
<svg width="2808pt" height="284pt"
 viewBox="0.00 0.00 2808.00 284.00" xmlns="http://www.w3.org/2000/svg" xmlns:xlink="http://www.w3.org/1999/xlink">
<g id="graph0" class="graph" transform="scale(1 1) rotate(0) translate(4 280)">
<title>dependencies</title>
<polygon fill="#ffffff" stroke="transparent" points="-4,4 -4,-280 2804,-280 2804,4 -4,4"/>
<text text-anchor="start" x="1379.0091" y="-42.4" font-family="sans-serif" font-weight="bold" font-size="14.00" fill="#000000">Legend</text>
<polygon fill="#ffffb3" stroke="transparent" points="1166,-10 1166,-30 1186,-30 1186,-10 1166,-10"/>
<text text-anchor="start" x="1189.629" y="-15.4" font-family="sans-serif" font-size="14.00" fill="#000000"> &#160;Declarations</text>
<polygon fill="#8dd3c7" stroke="transparent" points="1279,-10 1279,-30 1299,-30 1299,-10 1279,-10"/>
<text text-anchor="start" x="1302.7251" y="-15.4" font-family="sans-serif" font-size="14.00" fill="#000000"> &#160;Module</text>
<polygon fill="#80b1d3" stroke="transparent" points="1365,-10 1365,-30 1385,-30 1385,-10 1365,-10"/>
<text text-anchor="start" x="1388.7812" y="-15.4" font-family="sans-serif" font-size="14.00" fill="#000000"> &#160;Bootstrap</text>
<polygon fill="#fdb462" stroke="transparent" points="1462,-10 1462,-30 1482,-30 1482,-10 1462,-10"/>
<text text-anchor="start" x="1485.6732" y="-15.4" font-family="sans-serif" font-size="14.00" fill="#000000"> &#160;Providers</text>
<polygon fill="#fb8072" stroke="transparent" points="1558,-10 1558,-30 1578,-30 1578,-10 1558,-10"/>
<text text-anchor="start" x="1581.7258" y="-15.4" font-family="sans-serif" font-size="14.00" fill="#000000"> &#160;Exports</text>
<g id="clust1" class="cluster">
<title>cluster_AppModule</title>
<polygon fill="none" stroke="#000000" stroke-dasharray="1,5" points="8,-70 8,-268 2792,-268 2792,-70 8,-70"/>
</g>
<g id="clust2" class="cluster">
<title>cluster_AppModule_declarations</title>
<polygon fill="none" stroke="#000000" points="1975,-78 1975,-130 2784,-130 2784,-78 1975,-78"/>
</g>
<g id="clust8" class="cluster">
<title>cluster_AppModule_imports</title>
<polygon fill="none" stroke="#000000" points="1706,-78 1706,-130 1967,-130 1967,-78 1706,-78"/>
</g>
<g id="clust10" class="cluster">
<title>cluster_AppModule_bootstrap</title>
<polygon fill="none" stroke="#000000" points="1547,-208 1547,-260 1671,-260 1671,-208 1547,-208"/>
</g>
<g id="clust11" class="cluster">
<title>cluster_AppModule_providers</title>
<polygon fill="none" stroke="#000000" points="16,-78 16,-130 1698,-130 1698,-78 16,-78"/>
</g>
<!-- AppComponent -->
<g id="node1" class="node">
<title>AppComponent</title>
<polygon fill="#ffffb3" stroke="#000000" points="2775.9399,-122 2670.0601,-122 2670.0601,-86 2775.9399,-86 2775.9399,-122"/>
<text text-anchor="middle" x="2723" y="-99.8" font-family="Times,serif" font-size="14.00" fill="#000000">AppComponent</text>
</g>
<!-- AppModule -->
<g id="node6" class="node">
<title>AppModule</title>
<polygon fill="#8dd3c7" stroke="#000000" points="1650.6571,-187 1647.6571,-191 1626.6571,-191 1623.6571,-187 1567.3429,-187 1567.3429,-151 1650.6571,-151 1650.6571,-187"/>
<text text-anchor="middle" x="1609" y="-164.8" font-family="Times,serif" font-size="14.00" fill="#000000">AppModule</text>
</g>
<!-- AppComponent&#45;&gt;AppModule -->
<g id="edge1" class="edge">
<title>AppComponent&#45;&gt;AppModule</title>
<path fill="none" stroke="#000000" d="M2723,-122.3228C2723,-145.6602 2723,-183 2723,-183 2723,-183 1660.9728,-183 1660.9728,-183"/>
<polygon fill="#000000" stroke="#000000" points="1660.9728,-179.5001 1650.9728,-183 1660.9727,-186.5001 1660.9728,-179.5001"/>
</g>
<!-- ToiDashboardComponent -->
<g id="node2" class="node">
<title>ToiDashboardComponent</title>
<polygon fill="#ffffb3" stroke="#000000" points="2652.9171,-122 2491.0829,-122 2491.0829,-86 2652.9171,-86 2652.9171,-122"/>
<text text-anchor="middle" x="2572" y="-99.8" font-family="Times,serif" font-size="14.00" fill="#000000">ToiDashboardComponent</text>
</g>
<!-- ToiDashboardComponent&#45;&gt;AppModule -->
<g id="edge2" class="edge">
<title>ToiDashboardComponent&#45;&gt;AppModule</title>
<path fill="none" stroke="#000000" d="M2572,-122.2921C2572,-144.2057 2572,-178 2572,-178 2572,-178 1660.688,-178 1660.688,-178"/>
<polygon fill="#000000" stroke="#000000" points="1660.688,-174.5001 1650.688,-178 1660.688,-181.5001 1660.688,-174.5001"/>
</g>
<!-- ToiCardComponent -->
<g id="node3" class="node">
<title>ToiCardComponent</title>
<polygon fill="#ffffb3" stroke="#000000" points="2472.9874,-122 2345.0126,-122 2345.0126,-86 2472.9874,-86 2472.9874,-122"/>
<text text-anchor="middle" x="2409" y="-99.8" font-family="Times,serif" font-size="14.00" fill="#000000">ToiCardComponent</text>
</g>
<!-- ToiCardComponent&#45;&gt;AppModule -->
<g id="edge3" class="edge">
<title>ToiCardComponent&#45;&gt;AppModule</title>
<path fill="none" stroke="#000000" d="M2409,-122.0267C2409,-142.7672 2409,-174 2409,-174 2409,-174 1660.8851,-174 1660.8851,-174"/>
<polygon fill="#000000" stroke="#000000" points="1660.8851,-170.5001 1650.8851,-174 1660.8851,-177.5001 1660.8851,-170.5001"/>
</g>
<!-- PharosDashboardComponent -->
<g id="node4" class="node">
<title>PharosDashboardComponent</title>
<polygon fill="#ffffb3" stroke="#000000" points="2327.0758,-122 2146.9242,-122 2146.9242,-86 2327.0758,-86 2327.0758,-122"/>
<text text-anchor="middle" x="2237" y="-99.8" font-family="Times,serif" font-size="14.00" fill="#000000">PharosDashboardComponent</text>
</g>
<!-- PharosDashboardComponent&#45;&gt;AppModule -->
<g id="edge4" class="edge">
<title>PharosDashboardComponent&#45;&gt;AppModule</title>
<path fill="none" stroke="#000000" d="M2237,-122.1061C2237,-141.3391 2237,-169 2237,-169 2237,-169 1660.6912,-169 1660.6912,-169"/>
<polygon fill="#000000" stroke="#000000" points="1660.6912,-165.5001 1650.6912,-169 1660.6911,-172.5001 1660.6912,-165.5001"/>
</g>
<!-- SearchCardComponent -->
<g id="node5" class="node">
<title>SearchCardComponent</title>
<polygon fill="#ffffb3" stroke="#000000" points="2129.1317,-122 1982.8683,-122 1982.8683,-86 2129.1317,-86 2129.1317,-122"/>
<text text-anchor="middle" x="2056" y="-99.8" font-family="Times,serif" font-size="14.00" fill="#000000">SearchCardComponent</text>
</g>
<!-- SearchCardComponent&#45;&gt;AppModule -->
<g id="edge5" class="edge">
<title>SearchCardComponent&#45;&gt;AppModule</title>
<path fill="none" stroke="#000000" d="M2056,-122.302C2056,-140.2699 2056,-165 2056,-165 2056,-165 1661.0527,-165 1661.0527,-165"/>
<polygon fill="#000000" stroke="#000000" points="1661.0527,-161.5001 1651.0527,-165 1661.0526,-168.5001 1661.0527,-161.5001"/>
</g>
<!-- AppComponent  -->
<g id="node9" class="node">
<title>AppComponent </title>
<polygon fill="#80b1d3" stroke="#000000" points="1663.439,-252 1554.561,-252 1554.561,-216 1663.439,-216 1663.439,-252"/>
<text text-anchor="middle" x="1609" y="-229.8" font-family="Times,serif" font-size="14.00" fill="#000000">AppComponent </text>
</g>
<!-- AppModule&#45;&gt;AppComponent  -->
<g id="edge8" class="edge">
<title>AppModule&#45;&gt;AppComponent </title>
<path fill="none" stroke="#000000" stroke-dasharray="1,5" d="M1609,-187.1061C1609,-187.1061 1609,-205.991 1609,-205.991"/>
<polygon fill="#000000" stroke="#000000" points="1605.5001,-205.9909 1609,-215.991 1612.5001,-205.991 1605.5001,-205.9909"/>
</g>
<!-- AppRoutingModule -->
<g id="node7" class="node">
<title>AppRoutingModule</title>
<polygon fill="#8dd3c7" stroke="#000000" points="1959.2744,-122 1956.2744,-126 1935.2744,-126 1932.2744,-122 1830.7256,-122 1830.7256,-86 1959.2744,-86 1959.2744,-122"/>
<text text-anchor="middle" x="1895" y="-99.8" font-family="Times,serif" font-size="14.00" fill="#000000">AppRoutingModule</text>
</g>
<!-- AppRoutingModule&#45;&gt;AppModule -->
<g id="edge6" class="edge">
<title>AppRoutingModule&#45;&gt;AppModule</title>
<path fill="none" stroke="#000000" d="M1895,-122.027C1895,-138.3976 1895,-160 1895,-160 1895,-160 1660.8931,-160 1660.8931,-160"/>
<polygon fill="#000000" stroke="#000000" points="1660.8932,-156.5001 1650.8931,-160 1660.8931,-163.5001 1660.8932,-156.5001"/>
</g>
<!-- SharedModule -->
<g id="node8" class="node">
<title>SharedModule</title>
<polygon fill="#8dd3c7" stroke="#000000" points="1812.4231,-122 1809.4231,-126 1788.4231,-126 1785.4231,-122 1713.5769,-122 1713.5769,-86 1812.4231,-86 1812.4231,-122"/>
<text text-anchor="middle" x="1763" y="-99.8" font-family="Times,serif" font-size="14.00" fill="#000000">SharedModule</text>
</g>
<!-- SharedModule&#45;&gt;AppModule -->
<g id="edge7" class="edge">
<title>SharedModule&#45;&gt;AppModule</title>
<path fill="none" stroke="#000000" d="M1763,-122.1871C1763,-137.1824 1763,-156 1763,-156 1763,-156 1660.6746,-156 1660.6746,-156"/>
<polygon fill="#000000" stroke="#000000" points="1660.6747,-152.5001 1650.6746,-156 1660.6746,-159.5001 1660.6747,-152.5001"/>
</g>
<!-- PharosApiService -->
<g id="node10" class="node">
<title>PharosApiService</title>
<ellipse fill="#fdb462" stroke="#000000" cx="1609" cy="-104" rx="80.5162" ry="18"/>
<text text-anchor="middle" x="1609" y="-99.8" font-family="Times,serif" font-size="14.00" fill="#000000">PharosApiService</text>
</g>
<!-- PharosApiService&#45;&gt;AppModule -->
<g id="edge9" class="edge">
<title>PharosApiService&#45;&gt;AppModule</title>
<path fill="none" stroke="#000000" d="M1609,-122.1061C1609,-122.1061 1609,-140.991 1609,-140.991"/>
<polygon fill="#000000" stroke="#000000" points="1605.5001,-140.9909 1609,-150.991 1612.5001,-140.991 1605.5001,-140.9909"/>
</g>
<!-- PathResolverService -->
<g id="node11" class="node">
<title>PathResolverService</title>
<ellipse fill="#fdb462" stroke="#000000" cx="1419" cy="-104" rx="91.4674" ry="18"/>
<text text-anchor="middle" x="1419" y="-99.8" font-family="Times,serif" font-size="14.00" fill="#000000">PathResolverService</text>
</g>
<!-- PathResolverService&#45;&gt;AppModule -->
<g id="edge10" class="edge">
<title>PathResolverService&#45;&gt;AppModule</title>
<path fill="none" stroke="#000000" d="M1419,-122.1871C1419,-137.1824 1419,-156 1419,-156 1419,-156 1557.3037,-156 1557.3037,-156"/>
<polygon fill="#000000" stroke="#000000" points="1557.3037,-159.5001 1567.3037,-156 1557.3037,-152.5001 1557.3037,-159.5001"/>
</g>
<!-- ResponseParserService -->
<g id="node12" class="node">
<title>ResponseParserService</title>
<ellipse fill="#fdb462" stroke="#000000" cx="1208" cy="-104" rx="101.2582" ry="18"/>
<text text-anchor="middle" x="1208" y="-99.8" font-family="Times,serif" font-size="14.00" fill="#000000">ResponseParserService</text>
</g>
<!-- ResponseParserService&#45;&gt;AppModule -->
<g id="edge11" class="edge">
<title>ResponseParserService&#45;&gt;AppModule</title>
<path fill="none" stroke="#000000" d="M1208,-122.027C1208,-138.3976 1208,-160 1208,-160 1208,-160 1557.2208,-160 1557.2208,-160"/>
<polygon fill="#000000" stroke="#000000" points="1557.2208,-163.5001 1567.2208,-160 1557.2207,-156.5001 1557.2208,-163.5001"/>
</g>
<!-- LoadingService -->
<g id="node13" class="node">
<title>LoadingService</title>
<ellipse fill="#fdb462" stroke="#000000" cx="1017" cy="-104" rx="72.3516" ry="18"/>
<text text-anchor="middle" x="1017" y="-99.8" font-family="Times,serif" font-size="14.00" fill="#000000">LoadingService</text>
</g>
<!-- LoadingService&#45;&gt;AppModule -->
<g id="edge12" class="edge">
<title>LoadingService&#45;&gt;AppModule</title>
<path fill="none" stroke="#000000" d="M1017,-122.302C1017,-140.2699 1017,-165 1017,-165 1017,-165 1556.8994,-165 1556.8994,-165"/>
<polygon fill="#000000" stroke="#000000" points="1556.8994,-168.5001 1566.8994,-165 1556.8994,-161.5001 1556.8994,-168.5001"/>
</g>
<!-- EnvironmentVariablesService -->
<g id="node14" class="node">
<title>EnvironmentVariablesService</title>
<ellipse fill="#fdb462" stroke="#000000" cx="799" cy="-104" rx="127.3248" ry="18"/>
<text text-anchor="middle" x="799" y="-99.8" font-family="Times,serif" font-size="14.00" fill="#000000">EnvironmentVariablesService</text>
</g>
<!-- EnvironmentVariablesService&#45;&gt;AppModule -->
<g id="edge13" class="edge">
<title>EnvironmentVariablesService&#45;&gt;AppModule</title>
<path fill="none" stroke="#000000" d="M799,-122.1061C799,-141.3391 799,-169 799,-169 799,-169 1557.1565,-169 1557.1565,-169"/>
<polygon fill="#000000" stroke="#000000" points="1557.1566,-172.5001 1567.1565,-169 1557.1565,-165.5001 1557.1566,-172.5001"/>
</g>
<!-- FacetRetrieverService -->
<g id="node15" class="node">
<title>FacetRetrieverService</title>
<ellipse fill="#fdb462" stroke="#000000" cx="557" cy="-104" rx="96.6598" ry="18"/>
<text text-anchor="middle" x="557" y="-99.8" font-family="Times,serif" font-size="14.00" fill="#000000">FacetRetrieverService</text>
</g>
<!-- FacetRetrieverService&#45;&gt;AppModule -->
<g id="edge14" class="edge">
<title>FacetRetrieverService&#45;&gt;AppModule</title>
<path fill="none" stroke="#000000" d="M557,-122.0267C557,-142.7672 557,-174 557,-174 557,-174 1557.1112,-174 1557.1112,-174"/>
<polygon fill="#000000" stroke="#000000" points="1557.1112,-177.5001 1567.1112,-174 1557.1111,-170.5001 1557.1112,-177.5001"/>
</g>
<!-- SuggestApiService -->
<g id="node16" class="node">
<title>SuggestApiService</title>
<ellipse fill="#fdb462" stroke="#000000" cx="357" cy="-104" rx="85.1101" ry="18"/>
<text text-anchor="middle" x="357" y="-99.8" font-family="Times,serif" font-size="14.00" fill="#000000">SuggestApiService</text>
</g>
<!-- SuggestApiService&#45;&gt;AppModule -->
<g id="edge15" class="edge">
<title>SuggestApiService&#45;&gt;AppModule</title>
<path fill="none" stroke="#000000" d="M357,-122.2921C357,-144.2057 357,-178 357,-178 357,-178 1556.9857,-178 1556.9857,-178"/>
<polygon fill="#000000" stroke="#000000" points="1556.9858,-181.5001 1566.9857,-178 1556.9857,-174.5001 1556.9858,-181.5001"/>
</g>
<!-- ComponentLookupService -->
<g id="node17" class="node">
<title>ComponentLookupService</title>
<ellipse fill="#fdb462" stroke="#000000" cx="139" cy="-104" rx="115.1976" ry="18"/>
<text text-anchor="middle" x="139" y="-99.8" font-family="Times,serif" font-size="14.00" fill="#000000">ComponentLookupService</text>
</g>
<!-- ComponentLookupService&#45;&gt;AppModule -->
<g id="edge16" class="edge">
<title>ComponentLookupService&#45;&gt;AppModule</title>
<path fill="none" stroke="#000000" d="M139,-122.3228C139,-145.6602 139,-183 139,-183 139,-183 1556.9832,-183 1556.9832,-183"/>
<polygon fill="#000000" stroke="#000000" points="1556.9833,-186.5001 1566.9832,-183 1556.9832,-179.5001 1556.9833,-186.5001"/>
</g>
</g>
</svg>
