<?xml version="1.0" encoding="UTF-8" standalone="no"?>
<!DOCTYPE svg PUBLIC "-//W3C//DTD SVG 1.1//EN"
 "http://www.w3.org/Graphics/SVG/1.1/DTD/svg11.dtd">
<!-- Generated by graphviz version 2.40.1 (20161225.0304)
 -->
<!-- Title: dependencies Pages: 1 -->
<svg width="2952pt" height="211pt"
 viewBox="0.00 0.00 2952.00 211.00" xmlns="http://www.w3.org/2000/svg" xmlns:xlink="http://www.w3.org/1999/xlink">
<g id="graph0" class="graph" transform="scale(1 1) rotate(0) translate(4 207)">
<title>dependencies</title>
<polygon fill="#ffffff" stroke="transparent" points="-4,4 -4,-207 2948,-207 2948,4 -4,4"/>
<text text-anchor="start" x="1451.0091" y="-42.4" font-family="sans-serif" font-weight="bold" font-size="14.00" fill="#000000">Legend</text>
<polygon fill="#ffffb3" stroke="transparent" points="1238,-10 1238,-30 1258,-30 1258,-10 1238,-10"/>
<text text-anchor="start" x="1261.629" y="-15.4" font-family="sans-serif" font-size="14.00" fill="#000000"> &#160;Declarations</text>
<polygon fill="#8dd3c7" stroke="transparent" points="1351,-10 1351,-30 1371,-30 1371,-10 1351,-10"/>
<text text-anchor="start" x="1374.7251" y="-15.4" font-family="sans-serif" font-size="14.00" fill="#000000"> &#160;Module</text>
<polygon fill="#80b1d3" stroke="transparent" points="1437,-10 1437,-30 1457,-30 1457,-10 1437,-10"/>
<text text-anchor="start" x="1460.7812" y="-15.4" font-family="sans-serif" font-size="14.00" fill="#000000"> &#160;Bootstrap</text>
<polygon fill="#fdb462" stroke="transparent" points="1534,-10 1534,-30 1554,-30 1554,-10 1534,-10"/>
<text text-anchor="start" x="1557.6732" y="-15.4" font-family="sans-serif" font-size="14.00" fill="#000000"> &#160;Providers</text>
<polygon fill="#fb8072" stroke="transparent" points="1630,-10 1630,-30 1650,-30 1650,-10 1630,-10"/>
<text text-anchor="start" x="1653.7258" y="-15.4" font-family="sans-serif" font-size="14.00" fill="#000000"> &#160;Exports</text>
<g id="clust1" class="cluster">
<title>cluster_PharosMainRoutingModule</title>
<polygon fill="none" stroke="#000000" stroke-dasharray="1,5" points="8,-70 8,-195 2936,-195 2936,-70 8,-70"/>
</g>
<g id="clust2" class="cluster">
<title>cluster_PharosMainRoutingModule_declarations</title>
<polygon fill="none" stroke="#000000" points="520,-78 520,-130 2928,-130 2928,-78 520,-78"/>
</g>
<g id="clust16" class="cluster">
<title>cluster_PharosMainRoutingModule_imports</title>
<polygon fill="none" stroke="#000000" points="398,-78 398,-130 512,-130 512,-78 398,-78"/>
</g>
<g id="clust19" class="cluster">
<title>cluster_PharosMainRoutingModule_providers</title>
<polygon fill="none" stroke="#000000" points="16,-78 16,-130 390,-130 390,-78 16,-78"/>
</g>
<!-- TargetTableComponent -->
<g id="node1" class="node">
<title>TargetTableComponent</title>
<polygon fill="#ffffb3" stroke="#000000" points="2919.738,-122 2770.262,-122 2770.262,-86 2919.738,-86 2919.738,-122"/>
<text text-anchor="middle" x="2845" y="-99.8" font-family="Times,serif" font-size="14.00" fill="#000000">TargetTableComponent</text>
</g>
<!-- PharosMainRoutingModule -->
<g id="node14" class="node">
<title>PharosMainRoutingModule</title>
<polygon fill="#8dd3c7" stroke="#000000" points="1605.3201,-187 1602.3201,-191 1581.3201,-191 1578.3201,-187 1432.6799,-187 1432.6799,-151 1605.3201,-151 1605.3201,-187"/>
<text text-anchor="middle" x="1519" y="-164.8" font-family="Times,serif" font-size="14.00" fill="#000000">PharosMainRoutingModule</text>
</g>
<!-- TargetTableComponent&#45;&gt;PharosMainRoutingModule -->
<g id="edge1" class="edge">
<title>TargetTableComponent&#45;&gt;PharosMainRoutingModule</title>
<path fill="none" stroke="#000000" d="M2845,-122.3228C2845,-145.6602 2845,-183 2845,-183 2845,-183 1615.2358,-183 1615.2358,-183"/>
<polygon fill="#000000" stroke="#000000" points="1615.2358,-179.5001 1605.2358,-183 1615.2358,-186.5001 1615.2358,-179.5001"/>
</g>
<!-- TargetDetailsComponent -->
<g id="node2" class="node">
<title>TargetDetailsComponent</title>
<polygon fill="#ffffb3" stroke="#000000" points="2751.5183,-122 2594.4817,-122 2594.4817,-86 2751.5183,-86 2751.5183,-122"/>
<text text-anchor="middle" x="2673" y="-99.8" font-family="Times,serif" font-size="14.00" fill="#000000">TargetDetailsComponent</text>
</g>
<!-- TargetDetailsComponent&#45;&gt;PharosMainRoutingModule -->
<g id="edge2" class="edge">
<title>TargetDetailsComponent&#45;&gt;PharosMainRoutingModule</title>
<path fill="none" stroke="#000000" d="M2673,-122.2921C2673,-144.2057 2673,-178 2673,-178 2673,-178 1615.2656,-178 1615.2656,-178"/>
<polygon fill="#000000" stroke="#000000" points="1615.2657,-174.5001 1605.2656,-178 1615.2656,-181.5001 1615.2657,-174.5001"/>
</g>
<!-- TdarkViewerComponent -->
<g id="node3" class="node">
<title>TdarkViewerComponent</title>
<polygon fill="#ffffb3" stroke="#000000" points="2575.9538,-122 2420.0462,-122 2420.0462,-86 2575.9538,-86 2575.9538,-122"/>
<text text-anchor="middle" x="2498" y="-99.8" font-family="Times,serif" font-size="14.00" fill="#000000">TdarkViewerComponent</text>
</g>
<!-- TdarkViewerComponent&#45;&gt;PharosMainRoutingModule -->
<g id="edge3" class="edge">
<title>TdarkViewerComponent&#45;&gt;PharosMainRoutingModule</title>
<path fill="none" stroke="#000000" d="M2498,-122.0267C2498,-142.7672 2498,-174 2498,-174 2498,-174 1615.4503,-174 1615.4503,-174"/>
<polygon fill="#000000" stroke="#000000" points="1615.4503,-170.5001 1605.4503,-174 1615.4502,-177.5001 1615.4503,-170.5001"/>
</g>
<!-- TbioViewerComponent -->
<g id="node4" class="node">
<title>TbioViewerComponent</title>
<polygon fill="#ffffb3" stroke="#000000" points="2402.4692,-122 2253.5308,-122 2253.5308,-86 2402.4692,-86 2402.4692,-122"/>
<text text-anchor="middle" x="2328" y="-99.8" font-family="Times,serif" font-size="14.00" fill="#000000">TbioViewerComponent</text>
</g>
<!-- TbioViewerComponent&#45;&gt;PharosMainRoutingModule -->
<g id="edge4" class="edge">
<title>TbioViewerComponent&#45;&gt;PharosMainRoutingModule</title>
<path fill="none" stroke="#000000" d="M2328,-122.1061C2328,-141.3391 2328,-169 2328,-169 2328,-169 1615.1939,-169 1615.1939,-169"/>
<polygon fill="#000000" stroke="#000000" points="1615.1939,-165.5001 1605.1939,-169 1615.1938,-172.5001 1615.1939,-165.5001"/>
</g>
<!-- TchemViewerComponent -->
<g id="node5" class="node">
<title>TchemViewerComponent</title>
<polygon fill="#ffffb3" stroke="#000000" points="2235.8989,-122 2074.1011,-122 2074.1011,-86 2235.8989,-86 2235.8989,-122"/>
<text text-anchor="middle" x="2155" y="-99.8" font-family="Times,serif" font-size="14.00" fill="#000000">TchemViewerComponent</text>
</g>
<!-- TchemViewerComponent&#45;&gt;PharosMainRoutingModule -->
<g id="edge5" class="edge">
<title>TchemViewerComponent&#45;&gt;PharosMainRoutingModule</title>
<path fill="none" stroke="#000000" d="M2155,-122.302C2155,-140.2699 2155,-165 2155,-165 2155,-165 1615.4357,-165 1615.4357,-165"/>
<polygon fill="#000000" stroke="#000000" points="1615.4357,-161.5001 1605.4357,-165 1615.4357,-168.5001 1615.4357,-161.5001"/>
</g>
<!-- TclinViewerComponent -->
<g id="node6" class="node">
<title>TclinViewerComponent</title>
<polygon fill="#ffffb3" stroke="#000000" points="2056.0744,-122 1903.9256,-122 1903.9256,-86 2056.0744,-86 2056.0744,-122"/>
<text text-anchor="middle" x="1980" y="-99.8" font-family="Times,serif" font-size="14.00" fill="#000000">TclinViewerComponent</text>
</g>
<!-- TclinViewerComponent&#45;&gt;PharosMainRoutingModule -->
<g id="edge6" class="edge">
<title>TclinViewerComponent&#45;&gt;PharosMainRoutingModule</title>
<path fill="none" stroke="#000000" d="M1980,-122.027C1980,-138.3976 1980,-160 1980,-160 1980,-160 1615.1698,-160 1615.1698,-160"/>
<polygon fill="#000000" stroke="#000000" points="1615.1698,-156.5001 1605.1698,-160 1615.1697,-163.5001 1615.1698,-156.5001"/>
</g>
<!-- ReferencesPanelComponent -->
<g id="node7" class="node">
<title>ReferencesPanelComponent</title>
<polygon fill="#ffffb3" stroke="#000000" points="1886.1106,-122 1711.8894,-122 1711.8894,-86 1886.1106,-86 1886.1106,-122"/>
<text text-anchor="middle" x="1799" y="-99.8" font-family="Times,serif" font-size="14.00" fill="#000000">ReferencesPanelComponent</text>
</g>
<!-- ReferencesPanelComponent&#45;&gt;PharosMainRoutingModule -->
<g id="edge7" class="edge">
<title>ReferencesPanelComponent&#45;&gt;PharosMainRoutingModule</title>
<path fill="none" stroke="#000000" d="M1799,-122.1871C1799,-137.1824 1799,-156 1799,-156 1799,-156 1615.2939,-156 1615.2939,-156"/>
<polygon fill="#000000" stroke="#000000" points="1615.294,-152.5001 1605.2939,-156 1615.2939,-159.5001 1615.294,-152.5001"/>
</g>
<!-- SummaryPanelComponent -->
<g id="node8" class="node">
<title>SummaryPanelComponent</title>
<polygon fill="#ffffb3" stroke="#000000" points="1693.3738,-122 1526.6262,-122 1526.6262,-86 1693.3738,-86 1693.3738,-122"/>
<text text-anchor="middle" x="1610" y="-99.8" font-family="Times,serif" font-size="14.00" fill="#000000">SummaryPanelComponent</text>
</g>
<!-- SummaryPanelComponent&#45;&gt;PharosMainRoutingModule -->
<g id="edge8" class="edge">
<title>SummaryPanelComponent&#45;&gt;PharosMainRoutingModule</title>
<path fill="none" stroke="#000000" d="M1565.8615,-122.1061C1565.8615,-122.1061 1565.8615,-140.991 1565.8615,-140.991"/>
<polygon fill="#000000" stroke="#000000" points="1562.3616,-140.9909 1565.8615,-150.991 1569.3616,-140.991 1562.3616,-140.9909"/>
</g>
<!-- TargetHeaderComponent -->
<g id="node9" class="node">
<title>TargetHeaderComponent</title>
<polygon fill="#ffffb3" stroke="#000000" points="1508.2766,-122 1349.7234,-122 1349.7234,-86 1508.2766,-86 1508.2766,-122"/>
<text text-anchor="middle" x="1429" y="-99.8" font-family="Times,serif" font-size="14.00" fill="#000000">TargetHeaderComponent</text>
</g>
<!-- TargetHeaderComponent&#45;&gt;PharosMainRoutingModule -->
<g id="edge9" class="edge">
<title>TargetHeaderComponent&#45;&gt;PharosMainRoutingModule</title>
<path fill="none" stroke="#000000" d="M1470.4892,-122.1061C1470.4892,-122.1061 1470.4892,-140.991 1470.4892,-140.991"/>
<polygon fill="#000000" stroke="#000000" points="1466.9892,-140.9909 1470.4892,-150.991 1473.9892,-140.991 1466.9892,-140.9909"/>
</g>
<!-- DiseaseTableComponent -->
<g id="node10" class="node">
<title>DiseaseTableComponent</title>
<polygon fill="#ffffb3" stroke="#000000" points="1331.2352,-122 1174.7648,-122 1174.7648,-86 1331.2352,-86 1331.2352,-122"/>
<text text-anchor="middle" x="1253" y="-99.8" font-family="Times,serif" font-size="14.00" fill="#000000">DiseaseTableComponent</text>
</g>
<!-- DiseaseTableComponent&#45;&gt;PharosMainRoutingModule -->
<g id="edge10" class="edge">
<title>DiseaseTableComponent&#45;&gt;PharosMainRoutingModule</title>
<path fill="none" stroke="#000000" d="M1253,-122.1871C1253,-137.1824 1253,-156 1253,-156 1253,-156 1422.6374,-156 1422.6374,-156"/>
<polygon fill="#000000" stroke="#000000" points="1422.6375,-159.5001 1432.6374,-156 1422.6374,-152.5001 1422.6375,-159.5001"/>
</g>
<!-- DiseaseSourcesPanelComponent -->
<g id="node11" class="node">
<title>DiseaseSourcesPanelComponent</title>
<polygon fill="#ffffb3" stroke="#000000" points="1156.2822,-122 955.7178,-122 955.7178,-86 1156.2822,-86 1156.2822,-122"/>
<text text-anchor="middle" x="1056" y="-99.8" font-family="Times,serif" font-size="14.00" fill="#000000">DiseaseSourcesPanelComponent</text>
</g>
<!-- DiseaseSourcesPanelComponent&#45;&gt;PharosMainRoutingModule -->
<g id="edge11" class="edge">
<title>DiseaseSourcesPanelComponent&#45;&gt;PharosMainRoutingModule</title>
<path fill="none" stroke="#000000" d="M1056,-122.027C1056,-138.3976 1056,-160 1056,-160 1056,-160 1422.7275,-160 1422.7275,-160"/>
<polygon fill="#000000" stroke="#000000" points="1422.7275,-163.5001 1432.7275,-160 1422.7275,-156.5001 1422.7275,-163.5001"/>
</g>
<!-- KnowledgePanelComponent -->
<g id="node12" class="node">
<title>KnowledgePanelComponent</title>
<polygon fill="#ffffb3" stroke="#000000" points="937.4678,-122 760.5322,-122 760.5322,-86 937.4678,-86 937.4678,-122"/>
<text text-anchor="middle" x="849" y="-99.8" font-family="Times,serif" font-size="14.00" fill="#000000">KnowledgePanelComponent</text>
</g>
<!-- KnowledgePanelComponent&#45;&gt;PharosMainRoutingModule -->
<g id="edge12" class="edge">
<title>KnowledgePanelComponent&#45;&gt;PharosMainRoutingModule</title>
<path fill="none" stroke="#000000" d="M849,-122.302C849,-140.2699 849,-165 849,-165 849,-165 1422.7808,-165 1422.7808,-165"/>
<polygon fill="#000000" stroke="#000000" points="1422.7809,-168.5001 1432.7808,-165 1422.7808,-161.5001 1422.7809,-168.5001"/>
</g>
<!-- DiseaseRelevancePanelComponent -->
<g id="node13" class="node">
<title>DiseaseRelevancePanelComponent</title>
<polygon fill="#ffffb3" stroke="#000000" points="742.2654,-122 527.7346,-122 527.7346,-86 742.2654,-86 742.2654,-122"/>
<text text-anchor="middle" x="635" y="-99.8" font-family="Times,serif" font-size="14.00" fill="#000000">DiseaseRelevancePanelComponent</text>
</g>
<!-- DiseaseRelevancePanelComponent&#45;&gt;PharosMainRoutingModule -->
<g id="edge13" class="edge">
<title>DiseaseRelevancePanelComponent&#45;&gt;PharosMainRoutingModule</title>
<path fill="none" stroke="#000000" d="M635,-122.1061C635,-141.3391 635,-169 635,-169 635,-169 1422.6288,-169 1422.6288,-169"/>
<polygon fill="#000000" stroke="#000000" points="1422.6288,-172.5001 1432.6288,-169 1422.6288,-165.5001 1422.6288,-172.5001"/>
</g>
<!-- SharedModule -->
<g id="node15" class="node">
<title>SharedModule</title>
<polygon fill="#8dd3c7" stroke="#000000" points="504.4231,-122 501.4231,-126 480.4231,-126 477.4231,-122 405.5769,-122 405.5769,-86 504.4231,-86 504.4231,-122"/>
<text text-anchor="middle" x="455" y="-99.8" font-family="Times,serif" font-size="14.00" fill="#000000">SharedModule</text>
</g>
<!-- SharedModule&#45;&gt;PharosMainRoutingModule -->
<g id="edge14" class="edge">
<title>SharedModule&#45;&gt;PharosMainRoutingModule</title>
<path fill="none" stroke="#000000" d="M455,-122.0267C455,-142.7672 455,-174 455,-174 455,-174 1422.8297,-174 1422.8297,-174"/>
<polygon fill="#000000" stroke="#000000" points="1422.8297,-177.5001 1432.8297,-174 1422.8297,-170.5001 1422.8297,-177.5001"/>
</g>
<!-- DataListResolver -->
<g id="node16" class="node">
<title>DataListResolver</title>
<ellipse fill="#fdb462" stroke="#000000" cx="303" cy="-104" rx="78.724" ry="18"/>
<text text-anchor="middle" x="303" y="-99.8" font-family="Times,serif" font-size="14.00" fill="#000000">DataListResolver</text>
</g>
<!-- DataListResolver&#45;&gt;PharosMainRoutingModule -->
<g id="edge15" class="edge">
<title>DataListResolver&#45;&gt;PharosMainRoutingModule</title>
<path fill="none" stroke="#000000" d="M303,-122.2921C303,-144.2057 303,-178 303,-178 303,-178 1422.5231,-178 1422.5231,-178"/>
<polygon fill="#000000" stroke="#000000" points="1422.5231,-181.5001 1432.5231,-178 1422.5231,-174.5001 1422.5231,-181.5001"/>
</g>
<!-- DataDetailsResolver -->
<g id="node17" class="node">
<title>DataDetailsResolver</title>
<ellipse fill="#fdb462" stroke="#000000" cx="115" cy="-104" rx="90.882" ry="18"/>
<text text-anchor="middle" x="115" y="-99.8" font-family="Times,serif" font-size="14.00" fill="#000000">DataDetailsResolver</text>
</g>
<!-- DataDetailsResolver&#45;&gt;PharosMainRoutingModule -->
<g id="edge16" class="edge">
<title>DataDetailsResolver&#45;&gt;PharosMainRoutingModule</title>
<path fill="none" stroke="#000000" d="M115,-122.3228C115,-145.6602 115,-183 115,-183 115,-183 1422.7607,-183 1422.7607,-183"/>
<polygon fill="#000000" stroke="#000000" points="1422.7608,-186.5001 1432.7607,-183 1422.7607,-179.5001 1422.7608,-186.5001"/>
</g>
</g>
</svg>
